<svg width="221" height="221" viewBox="0 0 221 221" fill="none" xmlns="http://www.w3.org/2000/svg">
<path d="M112.488 91.3785H0V104.114H9.61712V219.904H89.143V104.114H112.488V91.3785Z" fill="#0CA7E8"/>
<path d="M170.658 149.198C170.679 149.198 170.716 149.212 170.74 149.212C185.41 149.664 193.783 145.038 195.081 132.741L201.032 76.1207C202.142 65.5714 194.192 57.5217 186.25 54.442L186.185 54.4202C186.185 54.4202 183.353 53.4456 180.764 53.0719C178.064 52.6911 175.407 53.206 175.407 53.206C169.203 53.9714 163.074 58.6133 163.074 58.6133C151.664 67.212 133.975 69.0699 110.46 64.129C104.544 62.8696 98.7934 66.9557 97.6185 73.2126C96.4431 79.4709 100.287 85.5518 106.203 86.796C116.061 88.8759 125.23 89.9047 133.688 89.9047C141.374 89.9047 148.279 89.0043 154.77 87.2914L154.718 88.09L150.926 124.178C131.062 124.937 118.548 129.267 113.642 137.132C107.008 147.82 96.2296 190.91 93.0862 204.129C91.4615 210.958 95.3836 217.887 101.838 219.61C102.82 219.871 103.81 220.001 104.786 220.001C110.18 220.001 115.099 216.14 116.472 210.358C122.011 187.073 129.665 162.938 133.16 155.297C136.055 148.652 155.21 148.298 170.658 149.198Z" fill="#0CA7E8"/>
<path d="M177.876 51.6341C191.352 51.6341 202.276 40.0755 202.276 25.8172C202.276 11.5589 191.352 0.000244141 177.876 0.000244141C164.4 0.000244141 153.476 11.5589 153.476 25.8172C153.476 40.0755 164.4 51.6341 177.876 51.6341Z" fill="#0CA7E8"/>
<path d="M217.758 124.154L220.999 79.6995C221.008 79.4476 220.918 79.2027 220.753 79.0211C220.587 78.8395 220.359 78.7368 220.121 78.7368H206.786C206.312 78.7368 205.924 79.1333 205.907 79.6344L202.894 124.121C202.497 137.836 198.678 154.705 176.905 154.705C176.597 154.705 152.829 154.648 152.829 154.648C152.828 154.648 152.828 154.648 152.828 154.648C152.595 154.648 152.372 154.746 152.207 154.92C152.042 155.095 151.949 155.332 151.949 155.579V169.324C151.949 169.838 152.343 170.255 152.828 170.255L174.685 170.254V201.85H167.823C158.839 201.85 151.25 210.194 151.25 220.07C151.25 220.584 151.644 221 152.129 221H160.785C161.271 221 161.665 220.584 161.665 220.07C161.665 216.437 164.483 213.368 167.819 213.368H196.279C199.618 213.368 202.438 216.437 202.438 220.07C202.438 220.584 202.832 221 203.317 221H211.977C212.462 221 212.855 220.584 212.855 220.07C212.855 210.194 205.264 201.85 196.279 201.85H189.423V168.559C210.884 167.945 215.864 145.443 217.758 124.154Z" fill="#0CA7E8"/>
<path d="M91.4507 77.8031H50.241L36.2934 23.7231C36.195 23.3428 35.8248 23.1179 35.4658 23.223L28.0288 25.3699C27.8562 25.4198 27.7097 25.5401 27.6212 25.7041C27.5323 25.8686 27.5089 26.0631 27.5561 26.2456L43.1882 86.8544C43.2681 87.1644 43.5346 87.3798 43.8383 87.3798H91.4512C91.8237 87.3798 92.1252 87.0608 92.1252 86.6666V78.5158C92.1247 78.1221 91.8232 77.8031 91.4507 77.8031Z" fill="#0CA7E8"/>
</svg>
