<svg width="475" height="128" viewBox="0 0 475 128" fill="none" xmlns="http://www.w3.org/2000/svg">
<path d="M35.1265 95.1952C37.7025 87.2052 43.9278 85.2076 46.7184 85.2076C47.5234 91.168 55.8954 104.216 66.5214 109.693C74.8934 113.559 80.099 112.7 81.6553 111.787C81.87 112.593 82.2671 115.074 82.1383 118.553C81.9773 122.903 76.9863 127.896 68.4534 126.93C61.627 126.157 51.4411 119.09 47.2014 115.654C43.4985 112.271 36.5755 105.344 35.1265 95.1952Z" fill="white"/>
<path fill-rule="evenodd" clip-rule="evenodd" d="M42.1543 32.4476C44.9986 43.187 48.0738 68.511 47.4298 81.9137C57.9233 107.526 82.0765 110.92 84.2278 111.222L84.2987 111.232C89.9337 112.038 113.601 113.971 130.184 90.7737C141.454 68.7043 121.973 69.3487 120.041 69.5098C118.592 69.993 115.275 71.8617 113.601 75.4701C112.286 77.3642 111.401 78.7085 110.726 79.7329C109.335 81.8449 108.839 82.5977 107.322 84.0079C105.068 86.1021 98.9497 90.7737 89.7727 84.0079C82.5277 77.081 83.9767 68.8654 84.4597 66.9323C85.5867 63.2272 89.9337 55.7204 98.3057 55.3338C106.678 54.9472 112.42 62.1533 114.245 65.8047C115.747 67.6304 120.524 70.4119 127.608 66.9323C134.692 63.4528 131.203 52.1657 128.574 46.9571C127.138 44.4301 123.307 39.1322 118.777 36.7088L118.756 36.7523C113.405 34.2399 103.684 32.3297 94.0091 33.5561C84.3451 34.7812 74.8184 39.12 69.6941 49.0064L68.8063 48.5462C74.1331 38.2691 84.0224 33.8141 93.8834 32.5641C102.966 31.4126 112.103 32.9669 117.811 35.2535C118.135 32.6739 117.496 26.9643 110.511 22.966C91.6176 17.8885 78.1588 23.8855 71.269 29.2094C67.7352 31.94 65.0091 35.3896 63.1629 38.1676C62.2411 39.5547 61.5418 40.7697 61.0736 41.6365C60.8396 42.0699 60.6634 42.4159 60.5462 42.6526C60.4877 42.7709 60.4438 42.8619 60.4149 42.9228C60.4004 42.9532 60.3897 42.9761 60.3827 42.9911L60.375 43.0077L60.3733 43.0115L60.3729 43.0122L60.3729 43.0123C60.3729 43.0123 60.3729 43.0122 59.9182 42.8042C59.4636 42.5962 59.4636 42.5961 59.4637 42.5959L59.4639 42.5954L59.4646 42.5939L59.4671 42.5884L59.4764 42.5685C59.4806 42.5595 59.4859 42.5482 59.4922 42.5348C59.4979 42.5227 59.5044 42.5089 59.5118 42.4934C59.5429 42.4279 59.589 42.3322 59.65 42.2089C59.7721 41.9625 59.9536 41.6059 60.1937 41.1613C60.6739 40.2724 61.3887 39.0307 62.3301 37.6142C64.2103 34.7849 67.0066 31.2393 70.6575 28.4181C77.2933 23.2905 89.7568 17.6283 107.057 21.1251C93.1964 12.5922 70.9763 16.8154 60.9993 27.7572C59.7895 29.3533 58.6403 31.3148 57.674 33.2972C56.4302 35.849 55.5106 38.3918 55.1537 40.176L54.1732 39.9799C54.5526 38.0825 55.5098 35.4551 56.7751 32.8591C56.9791 32.4406 57.1917 32.0217 57.4118 31.6058V16.1189C56.5235 7.62762 55.9262 4.81892 52.2598 1.74926C48.3591 -1.51649 41.1743 0.101687 39.7021 4.03525C38.6211 6.92342 38.6917 8.28738 38.8036 10.4512C38.8435 11.2235 38.8887 12.0976 38.8887 13.1794C38.8887 15.9179 40.8663 27.5845 42.1543 32.4476Z" fill="white"/>
<path d="M24.2477 19.6603C16.7286 36.9606 6.20194 78.4519 24.2477 106.015" stroke="white" stroke-opacity="0.5"/>
<path d="M133.853 19.6603C140.537 36.7388 149.894 77.6981 133.853 104.908" stroke="white" stroke-opacity="0.5"/>
<path d="M151.57 35.1605C155.748 45.585 161.596 70.5861 151.57 87.1947" stroke="white" stroke-opacity="0.5"/>
<path d="M6.53555 36.2674C2.35829 46.9137 -3.48987 72.4468 6.53555 89.4087" stroke="white" stroke-opacity="0.5"/>
<path d="M182.52 49.88H171V41H203.16V49.88H191.32V97H182.52V49.88ZM235.283 82.28C235.283 86.76 234.056 90.4667 231.603 93.4C229.15 96.3333 225.443 97.8 220.483 97.8C215.523 97.8 211.763 96.3333 209.203 93.4C206.696 90.4133 205.443 86.7067 205.443 82.28V71.72C205.443 66.6533 206.723 62.7867 209.283 60.12C211.896 57.4 215.63 56.04 220.483 56.04C225.123 56.04 228.75 57.4533 231.363 60.28C233.976 63.0533 235.283 66.8667 235.283 71.72V82.28ZM226.563 71.72C226.563 68.8933 225.976 67.0533 224.803 66.2C223.63 65.3467 222.19 64.92 220.483 64.92C216.323 64.92 214.243 67.1867 214.243 71.72V83.08C214.243 85.2133 214.83 86.76 216.003 87.72C217.176 88.68 218.67 89.16 220.483 89.16C222.243 89.16 223.683 88.6533 224.803 87.64C225.976 86.6267 226.563 85.1067 226.563 83.08V71.72ZM244.662 41H253.462V88.92H273.542V97H244.662V41ZM283.496 49.64L278.536 49.48V41H292.296V97H283.496V49.64ZM304.974 41H321.294C325.721 41 329.401 42.2267 332.334 44.68C335.268 47.1333 336.734 50.6267 336.734 55.16C336.734 57.2933 336.388 59.32 335.694 61.24C335.001 63.16 333.588 64.84 331.454 66.28L331.374 66.44V66.52C333.721 67.5867 335.668 69.2933 337.214 71.64C338.814 73.9867 339.614 76.9733 339.614 80.6C339.614 83.3733 339.054 86.0133 337.934 88.52C336.814 90.9733 334.974 93 332.414 94.6C329.854 96.2 326.548 97 322.494 97H304.974V41ZM317.614 63.96C320.654 63.96 322.894 63.4 324.334 62.28C325.774 61.16 326.494 59.24 326.494 56.52C326.494 54.0133 325.828 52.28 324.494 51.32C323.161 50.3067 321.134 49.8 318.414 49.8H313.774V63.96H317.614ZM318.654 88.92C321.108 88.92 323.081 88.7333 324.574 88.36C326.121 87.9333 327.321 87.1067 328.174 85.88C329.081 84.6533 329.534 82.84 329.534 80.44C329.534 77.4 328.601 75.32 326.734 74.2C324.868 73.0267 322.414 72.44 319.374 72.44H313.774V88.92H318.654ZM369.439 81.4H357.759V97H348.959V41H367.919C371.439 41 374.372 41.88 376.719 43.64C379.065 45.3467 380.799 47.64 381.919 50.52C383.092 53.4 383.679 56.5733 383.679 60.04C383.679 62.6533 383.572 64.92 383.359 66.84C383.145 68.76 382.585 70.76 381.679 72.84C380.825 74.92 379.439 76.7867 377.519 78.44L383.759 97H374.799L369.439 81.4ZM365.839 73C368.452 73 370.372 72.3333 371.599 71C372.879 69.6133 373.652 68.04 373.919 66.28C374.239 64.52 374.399 62.44 374.399 60.04C374.399 57.2133 373.999 55.08 373.199 53.64C372.399 52.1467 371.279 51.16 369.839 50.68C368.399 50.1467 366.532 49.88 364.239 49.88H357.759V73H365.839ZM415.475 82.36H402.595L399.475 97H389.555L402.675 41H415.075L429.235 97H418.755L415.475 82.36ZM404.675 73H413.395L408.835 55.72L404.675 73ZM442.463 81.4C442.729 83.7467 443.689 85.64 445.343 87.08C446.996 88.52 449.156 89.24 451.823 89.24C454.063 89.24 455.876 88.8667 457.263 88.12C458.703 87.3733 459.743 86.4667 460.383 85.4C461.023 84.3333 461.343 83.2933 461.343 82.28C461.343 79.9333 460.756 77.9867 459.583 76.44C458.463 74.84 457.049 73.5867 455.343 72.68C453.689 71.72 451.423 70.6267 448.543 69.4C445.396 68.0667 442.889 66.8667 441.023 65.8C439.209 64.68 437.636 63.1867 436.303 61.32C435.023 59.4 434.383 56.9733 434.383 54.04C434.383 51.6933 435.049 49.48 436.383 47.4C437.716 45.2667 439.743 43.5333 442.463 42.2C445.183 40.8667 448.516 40.2 452.463 40.2C455.076 40.2 457.236 40.3867 458.943 40.76C460.649 41.1333 462.383 41.7467 464.143 42.6L461.343 50.92C459.423 50.28 457.849 49.8267 456.623 49.56C455.449 49.2933 454.089 49.16 452.543 49.16C449.503 49.16 447.263 49.6933 445.823 50.76C444.383 51.8267 443.743 53.1867 443.903 54.84C444.063 56.1733 444.863 57.32 446.303 58.28C447.796 59.24 450.089 60.4133 453.183 61.8C456.809 63.4 459.823 64.92 462.223 66.36C464.623 67.8 466.676 69.7733 468.383 72.28C470.143 74.7867 471.023 77.8533 471.023 81.48C471.023 86.2267 469.449 90.1467 466.303 93.24C463.156 96.3333 458.356 97.88 451.903 97.88C447.956 97.88 444.569 97.16 441.743 95.72C438.969 94.2267 436.836 92.3333 435.342 90.04C433.903 87.6933 433.129 85.2667 433.023 82.76L442.463 81.4Z" fill="white"/>
</svg>
