<svg width="303" height="81" viewBox="0 0 303 81" fill="none" xmlns="http://www.w3.org/2000/svg">
<path d="M22.625 60.3158C24.2572 55.2533 28.2016 53.9876 29.9697 53.9876C30.4798 57.7641 35.7843 66.0316 42.517 69.5019C47.8215 71.9515 51.1198 71.4072 52.1059 70.8288C52.242 71.3391 52.4936 72.911 52.412 75.1156C52.31 77.8714 49.1476 81.0355 43.7411 80.4231C39.4159 79.9332 32.962 75.4558 30.2758 73.2784C27.9295 71.135 23.5431 66.7461 22.625 60.3158Z" fill="white"/>
<path fill-rule="evenodd" clip-rule="evenodd" d="M27.0721 20.559C28.8743 27.3635 30.8227 43.4088 30.4147 51.9009C37.0634 68.1288 52.3671 70.2793 53.7301 70.4708L53.775 70.4771C57.3454 70.9875 72.3409 72.2123 82.848 57.5146C89.9887 43.5313 77.6454 43.9396 76.4213 44.0417C75.5032 44.3479 73.4018 45.5319 72.3409 47.8182C71.508 49.0182 70.9472 49.8699 70.5197 50.5189L70.5196 50.5191C69.6383 51.8573 69.3242 52.3343 68.3625 53.2277C66.9344 54.5546 63.058 57.5146 57.2434 53.2277C52.6529 48.8388 53.571 43.6334 53.8771 42.4086C54.5911 40.061 57.3454 35.3047 62.6499 35.0597C67.9545 34.8148 71.5928 39.3806 72.749 41.6941C73.701 42.8509 76.7274 44.6133 81.2158 42.4086C85.7043 40.2039 83.4941 33.0524 81.8279 29.7522C80.9186 28.1523 78.4944 24.7993 75.6269 23.2623L75.5376 23.4526C72.1802 21.8764 66.0565 20.6703 59.9584 21.4434C53.8714 22.215 47.9016 24.9428 44.6919 31.1353L43.8041 30.6751C47.2163 24.0919 53.5486 21.2479 59.8327 20.4513C65.587 19.7219 71.3778 20.6958 75.029 22.1449C75.1708 20.5138 74.6922 17.3119 70.9639 14.9042C58.7222 11.3948 50.0292 15.2501 45.6263 18.6523C43.4088 20.3659 41.6943 22.534 40.5308 24.2847C39.9504 25.1582 39.5101 25.9231 39.2157 26.4683C39.0685 26.7408 38.9579 26.9581 38.8845 27.1063C38.8478 27.1804 38.8205 27.2372 38.8026 27.2749L38.7827 27.3169L38.7781 27.3268L38.7772 27.3289L38.777 27.3292C38.7771 27.3292 38.7771 27.3291 38.3224 27.1211C37.8677 26.9131 37.8678 26.913 37.8679 26.9128L37.868 26.9125L37.8686 26.9113L37.8703 26.9076L37.8764 26.8944L37.8994 26.8455C37.9195 26.8032 37.9492 26.7417 37.9883 26.6627C38.0665 26.5047 38.1825 26.2768 38.3358 25.9931C38.6422 25.4258 39.0979 24.6342 39.698 23.7313C40.8955 21.9292 42.6802 19.6651 45.0149 17.861C49.1917 14.6335 56.967 11.0868 67.7289 13.1086C59.2545 8.26322 46.2493 10.5828 39.7461 16.8344L39.8205 16.902C38.83 17.9916 37.8591 19.5692 37.0752 21.1774C36.2911 22.7861 35.7153 24.3817 35.4933 25.4914L34.5128 25.2953C34.7573 24.0724 35.3706 22.3922 36.1763 20.7392C36.3542 20.3744 36.5424 20.0088 36.7393 19.6478V10.213C36.1765 4.83289 35.7981 3.05329 33.475 1.10834C31.0035 -0.960852 26.4512 0.0644292 25.5184 2.55675C24.8335 4.38671 24.8782 5.25092 24.9491 6.62189C24.9744 7.11123 25.003 7.66512 25.003 8.35053C25.003 10.0857 26.2561 17.4777 27.0721 20.559Z" fill="white"/>
<path d="M15.7327 12.4575C10.9686 23.419 4.29879 49.7081 15.7327 67.1722" stroke="white" stroke-opacity="0.5"/>
<path d="M85.1778 12.4575C89.4126 23.2785 95.3412 49.2305 85.1778 66.4708" stroke="white" stroke-opacity="0.5"/>
<path d="M96.3999 22.2777C99.0466 28.8827 102.752 44.7236 96.3999 55.2468" stroke="white" stroke-opacity="0.5"/>
<path d="M4.50736 22.9792C1.86062 29.7247 -1.84481 45.9026 4.50736 56.6498" stroke="white" stroke-opacity="0.5"/>
<path d="M116.2 29.55H109V24H129.1V29.55H121.7V59H116.2V29.55ZM149.177 49.8C149.177 52.6 148.41 54.9167 146.877 56.75C145.344 58.5833 143.027 59.5 139.927 59.5C136.827 59.5 134.477 58.5833 132.877 56.75C131.31 54.8833 130.527 52.5667 130.527 49.8V43.2C130.527 40.0333 131.327 37.6167 132.927 35.95C134.56 34.25 136.894 33.4 139.927 33.4C142.827 33.4 145.094 34.2833 146.727 36.05C148.36 37.7833 149.177 40.1667 149.177 43.2V49.8ZM143.727 43.2C143.727 41.4333 143.36 40.2833 142.627 39.75C141.894 39.2167 140.994 38.95 139.927 38.95C137.327 38.95 136.027 40.3667 136.027 43.2V50.3C136.027 51.6333 136.394 52.6 137.127 53.2C137.86 53.8 138.794 54.1 139.927 54.1C141.027 54.1 141.927 53.7833 142.627 53.15C143.36 52.5167 143.727 51.5667 143.727 50.3V43.2ZM155.039 24H160.539V53.95H173.089V59H155.039V24ZM179.31 29.4L176.21 29.3V24H184.81V59H179.31V29.4ZM192.734 24H202.934C205.701 24 208.001 24.7667 209.834 26.3C211.667 27.8333 212.584 30.0167 212.584 32.85C212.584 34.1833 212.367 35.45 211.934 36.65C211.501 37.85 210.617 38.9 209.284 39.8L209.234 39.9V39.95C210.701 40.6167 211.917 41.6833 212.884 43.15C213.884 44.6167 214.384 46.4833 214.384 48.75C214.384 50.4833 214.034 52.1333 213.334 53.7C212.634 55.2333 211.484 56.5 209.884 57.5C208.284 58.5 206.217 59 203.684 59H192.734V24ZM200.634 38.35C202.534 38.35 203.934 38 204.834 37.3C205.734 36.6 206.184 35.4 206.184 33.7C206.184 32.1333 205.767 31.05 204.934 30.45C204.101 29.8167 202.834 29.5 201.134 29.5H198.234V38.35H200.634ZM201.284 53.95C202.817 53.95 204.051 53.8333 204.984 53.6C205.951 53.3333 206.701 52.8167 207.234 52.05C207.801 51.2833 208.084 50.15 208.084 48.65C208.084 46.75 207.501 45.45 206.334 44.75C205.167 44.0167 203.634 43.65 201.734 43.65H198.234V53.95H201.284ZM233.024 49.25H225.724V59H220.224V24H232.074C234.274 24 236.108 24.55 237.574 25.65C239.041 26.7167 240.124 28.15 240.824 29.95C241.558 31.75 241.924 33.7333 241.924 35.9C241.924 37.5333 241.858 38.95 241.724 40.15C241.591 41.35 241.241 42.6 240.674 43.9C240.141 45.2 239.274 46.3667 238.074 47.4L241.974 59H236.374L233.024 49.25ZM230.774 44C232.408 44 233.608 43.5833 234.374 42.75C235.174 41.8833 235.658 40.9 235.824 39.8C236.024 38.7 236.124 37.4 236.124 35.9C236.124 34.1333 235.874 32.8 235.374 31.9C234.874 30.9667 234.174 30.35 233.274 30.05C232.374 29.7167 231.208 29.55 229.774 29.55H225.724V44H230.774ZM261.797 49.85H253.747L251.797 59H245.597L253.797 24H261.547L270.397 59H263.847L261.797 49.85ZM255.047 44H260.497L257.647 33.2L255.047 44ZM278.664 49.25C278.831 50.7167 279.431 51.9 280.464 52.8C281.497 53.7 282.847 54.15 284.514 54.15C285.914 54.15 287.047 53.9167 287.914 53.45C288.814 52.9833 289.464 52.4167 289.864 51.75C290.264 51.0833 290.464 50.4333 290.464 49.8C290.464 48.3333 290.097 47.1167 289.364 46.15C288.664 45.15 287.781 44.3667 286.714 43.8C285.681 43.2 284.264 42.5167 282.464 41.75C280.497 40.9167 278.931 40.1667 277.764 39.5C276.631 38.8 275.647 37.8667 274.814 36.7C274.014 35.5 273.614 33.9833 273.614 32.15C273.614 30.6833 274.031 29.3 274.864 28C275.697 26.6667 276.964 25.5833 278.664 24.75C280.364 23.9167 282.447 23.5 284.914 23.5C286.547 23.5 287.897 23.6167 288.964 23.85C290.031 24.0833 291.114 24.4667 292.214 25L290.464 30.2C289.264 29.8 288.281 29.5167 287.514 29.35C286.781 29.1833 285.931 29.1 284.964 29.1C283.064 29.1 281.664 29.4333 280.764 30.1C279.864 30.7667 279.464 31.6167 279.564 32.65C279.664 33.4833 280.164 34.2 281.064 34.8C281.997 35.4 283.431 36.1333 285.364 37C287.631 38 289.514 38.95 291.014 39.85C292.514 40.75 293.797 41.9833 294.864 43.55C295.964 45.1167 296.514 47.0333 296.514 49.3C296.514 52.2667 295.531 54.7167 293.564 56.65C291.597 58.5833 288.597 59.55 284.564 59.55C282.097 59.55 279.981 59.1 278.214 58.2C276.481 57.2667 275.147 56.0833 274.214 54.65C273.314 53.1833 272.831 51.6667 272.764 50.1L278.664 49.25Z" fill="white"/>
</svg>
