<svg width="1349" height="221" viewBox="0 0 1349 221" fill="none" xmlns="http://www.w3.org/2000/svg">
<path d="M626.488 91.3779H514V104.113H523.617V219.903H603.143V104.113H626.488V91.3779Z" fill="#0CA7E8"/>
<path d="M684.658 149.198C684.679 149.198 684.716 149.212 684.74 149.212C699.41 149.664 707.783 145.038 709.081 132.741L715.032 76.1203C716.142 65.571 708.192 57.5213 700.25 54.4416L700.185 54.4198C700.185 54.4198 697.353 53.4452 694.764 53.0715C692.064 52.6907 689.407 53.2056 689.407 53.2056C683.203 53.971 677.074 58.6129 677.074 58.6129C665.664 67.2116 647.975 69.0695 624.46 64.1286C618.544 62.8692 612.793 66.9553 611.618 73.2122C610.443 79.4705 614.287 85.5514 620.203 86.7956C630.061 88.8755 639.23 89.9043 647.688 89.9043C655.374 89.9043 662.279 89.0039 668.77 87.291L668.718 88.0896L664.926 124.178C645.062 124.937 632.548 129.267 627.642 137.132C621.008 147.82 610.23 190.91 607.086 204.129C605.461 210.958 609.384 217.887 615.838 219.61C616.82 219.871 617.81 220.001 618.786 220.001C624.18 220.001 629.099 216.14 630.472 210.358C636.011 187.073 643.665 162.938 647.16 155.297C650.055 148.652 669.21 148.298 684.658 149.198Z" fill="#0CA7E8"/>
<path d="M691.876 51.6339C705.352 51.6339 716.276 40.0753 716.276 25.817C716.276 11.5587 705.352 0 691.876 0C678.4 0 667.476 11.5587 667.476 25.817C667.476 40.0753 678.4 51.6339 691.876 51.6339Z" fill="#0CA7E8"/>
<path d="M731.758 124.154L734.999 79.699C735.008 79.4471 734.918 79.2022 734.753 79.0206C734.587 78.839 734.359 78.7363 734.121 78.7363H720.786C720.312 78.7363 719.924 79.1328 719.907 79.6339L716.894 124.121C716.497 137.836 712.678 154.705 690.905 154.705C690.597 154.705 666.829 154.648 666.829 154.648C666.828 154.648 666.828 154.648 666.828 154.648C666.595 154.648 666.372 154.746 666.207 154.92C666.042 155.095 665.949 155.332 665.949 155.579V169.324C665.949 169.838 666.343 170.255 666.828 170.255L688.685 170.254V201.85H681.823C672.839 201.85 665.25 210.194 665.25 220.07C665.25 220.584 665.644 221 666.129 221H674.785C675.271 221 675.665 220.584 675.665 220.07C675.665 216.437 678.483 213.368 681.819 213.368H710.279C713.618 213.368 716.438 216.437 716.438 220.07C716.438 220.584 716.832 221 717.317 221H725.977C726.462 221 726.855 220.584 726.855 220.07C726.855 210.194 719.264 201.85 710.279 201.85H703.423V168.559C724.884 167.945 729.864 145.443 731.758 124.154Z" fill="#0CA7E8"/>
<path d="M605.451 77.8027H564.241L550.293 23.7227C550.195 23.3424 549.825 23.1175 549.466 23.2226L542.029 25.3695C541.856 25.4194 541.71 25.5397 541.621 25.7037C541.532 25.8682 541.509 26.0627 541.556 26.2452L557.188 86.854C557.268 87.164 557.535 87.3794 557.838 87.3794H605.451C605.824 87.3794 606.125 87.0604 606.125 86.6662V78.5154C606.125 78.1217 605.823 77.8027 605.451 77.8027Z" fill="#0CA7E8"/>
<path d="M21.0271 84.3537C19.3972 82.4083 9.05903 66.6962 1.39042 55.382C0.424702 53.8603 -1.18449 48.6863 1.39073 46.3686C3.96598 44.0509 8.57969 47.1197 9.4381 48.3001C14.6959 54.2017 24.0523 65.168 27.1427 69.5459C31.0055 75.0184 35.5122 78.8812 38.0875 77.2717C40.1477 75.9841 38.0875 69.0094 36.7999 65.683L18.3487 25.7526C17.1684 23.6065 16.8725 20.6021 20.2204 18.0268C23.5682 15.4516 26.7658 16.9538 27.9461 18.0268C29.2936 20.2802 41.5825 44.3254 50.32 61.1763C50.8614 62.1281 52.7928 66.6348 54.8267 65.683C56.8606 64.7313 56.3338 61.1903 56.3338 60.2106C55.0462 41.9692 52.2514 7.61096 52.2514 5.80828C52.2514 3.55493 53.861 0.335868 58.0458 0.0139604C61.3936 -0.243566 63.9474 3.12573 64.8058 4.84257C66.8446 20.5087 71.5659 53.6437 74.1411 60.8544C76.7164 68.0652 79.2916 63.4297 80.2574 60.2106C83.1545 44.6518 89.142 12.8902 89.9146 10.315C90.8803 7.09591 93.1337 5.48638 96.6746 5.80828C99.5074 6.06581 101.289 8.92006 101.825 10.315L98.6061 75.0184L79.2916 82.1003C73.1754 81.0273 60.5566 81.9716 59.0115 94.3328C57.4663 106.694 72.317 112.574 79.9355 113.969H100.216L72.5316 154.851H52.5733C36.4781 149.379 31.3274 116.223 31.3274 113.969C31.3274 100.311 22.657 86.2991 21.0271 84.3537Z" fill="#0CA7E8"/>
<path d="M77.349 103.211C70.9109 101.923 69.0868 97.7385 68.9795 95.807C67.9494 91.9441 76.7052 91.6222 81.2119 91.9441C97.3073 91.3003 137.546 59.1096 159.114 67.8011C170.702 79.6473 181.54 85.3987 185.51 86.7936C187.227 88.2959 190.467 94.455 189.695 107.074C188.729 122.847 177.399 142.403 176.175 145.381C175.453 147.137 174.215 150.62 174.243 152.785V201.714C174.243 203.646 171.346 207.831 168.127 207.831C165.552 207.831 163.62 203.753 162.976 201.714L159.114 165.339C158.792 163.837 157.568 160.832 155.251 160.832C152.933 160.832 151.71 163.837 151.388 165.339L143.34 213.303C142.589 215.878 139.992 220.965 135.614 220.707C131.236 220.449 130.786 214.376 131.108 211.372L135.614 167.592C135.829 166.305 136.001 163.407 134.97 162.12C133.94 160.832 132.61 162.442 132.073 163.407L105.355 211.372C103.96 213.41 100.14 216.844 96.0197 214.269C91.8993 211.694 93.0152 206.972 94.0882 204.934L115.656 157.291C116.3 155.467 117.201 151.561 115.656 150.531C114.111 149.501 112.222 150.96 111.471 151.819L76.0614 187.229C74.7737 188.838 71.2971 191.349 67.6918 188.516C64.0866 185.683 64.902 182.185 65.7604 180.79C70.8036 173.387 83.4009 155.682 93.4444 144.093C105.999 129.607 111.149 111.58 111.471 108.361C111.793 105.142 106.643 102.567 103.102 103.211C99.5606 103.855 85.3967 104.82 77.349 103.211Z" fill="#0CA7E8"/>
<path d="M5.26946 145.74C4.66812 142.778 6.47342 141.367 7.60656 140.995C11.0768 140.995 11.785 144.135 13.2722 149.159C14.7595 154.182 19.0796 159.903 21.8416 163.392C24.6036 166.88 29.1362 170.718 31.8274 171.764C33.9803 172.602 33.5743 174.858 33.1022 175.881C32.4176 176.462 30.6659 177.472 29.1362 176.858C27.224 176.09 23.1264 174.404 19.0088 170.02C14.6179 165.345 6.61505 152.368 5.26946 145.74Z" fill="#0CA7E8"/>
<path d="M214.697 132.169C213.244 134.819 210.955 134.731 209.849 134.283C207.199 132.043 208.685 129.188 210.792 124.392C212.899 119.595 213.293 112.437 213.436 107.99C213.579 103.542 212.595 97.6854 211.215 95.1488C210.111 93.1195 211.878 91.6588 212.899 91.1821C213.797 91.18 215.786 91.54 216.558 92.9964C217.523 94.817 219.564 98.7501 219.878 104.756C220.214 111.161 217.948 126.238 214.697 132.169Z" fill="#0CA7E8"/>
<path d="M18.1437 138.099C17.556 135.084 19.3203 133.648 20.4277 133.27C23.819 133.27 24.5112 136.465 25.9646 141.579C27.418 146.692 31.6399 152.515 34.3392 156.066C37.0385 159.617 41.468 163.523 44.098 164.588C46.2021 165.44 45.8052 167.736 45.3438 168.778C44.6748 169.37 42.963 170.397 41.468 169.772C39.5993 168.991 35.5948 167.275 31.5708 162.813C27.2797 158.054 19.4587 144.845 18.1437 138.099Z" fill="#0CA7E8"/>
<path d="M199.932 129.693C198.434 132.375 196.16 132.333 195.07 131.907C192.48 129.718 194.014 126.83 196.205 121.987C198.396 117.144 198.931 109.971 199.162 105.516C199.393 101.062 198.532 95.2196 197.211 92.7082C196.154 90.6991 197.94 89.2016 198.964 88.704C199.857 88.684 201.828 89.0045 202.566 90.4469C203.489 92.2498 205.439 96.1459 205.632 102.151C205.837 108.555 203.283 123.692 199.932 129.693Z" fill="#0CA7E8"/>
<rect x="356" y="23" width="24" height="175" rx="10" fill="#0CA7E8"/>
<rect x="281" y="122" width="24" height="175" rx="10" transform="rotate(-90 281 122)" fill="#0CA7E8"/>
<rect x="824" y="91" width="24" height="175" rx="10" transform="rotate(-90 824 91)" fill="#0CA7E8"/>
<rect x="824" y="155" width="24" height="175" rx="10" transform="rotate(-90 824 155)" fill="#0CA7E8"/>
<path d="M1134.36 165.588C1138.84 151.689 1149.67 148.215 1154.53 148.215C1155.93 158.583 1170.49 181.279 1188.97 190.807C1203.53 197.532 1212.59 196.037 1215.3 194.449C1215.67 195.85 1216.36 200.166 1216.14 206.218C1215.86 213.784 1207.17 222.47 1192.33 220.789C1180.46 219.444 1162.74 207.152 1155.37 201.174C1148.92 195.29 1136.88 183.241 1134.36 165.588Z" fill="#0CA7E8"/>
<path fill-rule="evenodd" clip-rule="evenodd" d="M1146.59 56.4412C1151.53 75.1218 1156.88 119.172 1155.76 142.485C1174.02 187.036 1216.03 192.94 1219.77 193.466L1219.89 193.483C1229.7 194.884 1270.86 198.247 1299.71 157.897C1319.31 119.508 1285.43 120.629 1282.07 120.909C1279.55 121.75 1273.78 125 1270.86 131.277C1268.58 134.572 1267.04 136.91 1265.86 138.692C1263.44 142.365 1262.58 143.675 1259.94 146.128C1256.02 149.77 1245.38 157.897 1229.42 146.128C1216.81 134.079 1219.33 119.788 1220.17 116.426C1222.13 109.981 1229.7 96.9231 1244.26 96.2506C1258.82 95.5781 1268.81 108.113 1271.98 114.464C1274.6 117.64 1282.91 122.478 1295.23 116.426C1307.55 110.373 1301.48 90.7398 1296.91 81.6797C1294.2 76.9161 1286.6 66.4923 1277.86 62.9057C1277.89 62.8388 1277.91 62.7679 1277.93 62.6931C1268.25 58.7551 1252.46 56.0091 1236.74 58.0019C1219.86 60.1421 1203.15 67.7322 1194.16 85.0735L1193.27 84.6134C1202.46 66.8813 1219.53 59.175 1236.61 57.0099C1252.4 55.0086 1268.28 57.7277 1278.13 61.6983C1278.83 57.2645 1277.93 46.3808 1264.14 39.2137C1231.91 31.0311 1208.89 41.3307 1197 50.5154C1190.81 55.2987 1186.05 61.3346 1182.82 66.1858C1181.21 68.6095 1179.99 70.7327 1179.17 72.2487C1178.76 73.0066 1178.45 73.6124 1178.25 74.0278C1178.14 74.2354 1178.07 74.3954 1178.02 74.503L1177.99 74.5602L1177.96 74.6244L1177.95 74.6545L1177.94 74.6617L1177.94 74.6633L1177.94 74.6636L1177.49 74.4555C1177.03 74.2475 1177.03 74.2474 1177.03 74.2472L1177.03 74.2465L1177.03 74.244L1177.04 74.2352L1177.05 74.2018C1177.06 74.1866 1177.07 74.1675 1177.08 74.1448C1177.09 74.1241 1177.1 74.1004 1177.11 74.0736C1177.17 73.9615 1177.25 73.7967 1177.35 73.5841C1177.56 73.159 1177.88 72.5426 1178.29 71.7735C1179.12 70.2354 1180.36 68.0855 1181.99 65.6323C1185.25 60.7299 1190.09 54.598 1196.39 49.7242C1207.98 40.7672 1229.89 30.8405 1260.37 37.3071C1234.98 20.85 1192.47 29.9034 1176.62 51.6337C1175.41 53.5756 1174.27 55.6615 1173.25 57.757C1171.08 62.212 1169.46 66.6663 1168.84 69.8118L1167.86 69.6157C1168.51 66.357 1170.16 61.8182 1172.35 57.3189C1172.6 56.8038 1172.86 56.2887 1173.13 55.7755V28.0381C1171.58 13.2679 1170.54 8.38228 1164.16 3.04275C1157.38 -2.63786 1144.88 0.17688 1142.32 7.01912C1140.44 12.043 1140.56 14.4155 1140.76 18.1793C1140.83 19.5227 1140.91 21.0433 1140.91 22.925C1140.91 27.6885 1144.35 47.982 1146.59 56.4412Z" fill="#0CA7E8"/>
<path d="M1115.44 34.1982C1102.36 64.2912 1084.05 136.463 1115.44 184.408" stroke="#0CA7E8" stroke-opacity="0.5" stroke-width="3"/>
<path d="M1306.09 34.1982C1317.72 63.9054 1333.99 135.152 1306.09 182.482" stroke="#0CA7E8" stroke-opacity="0.5" stroke-width="3"/>
<path d="M1336.91 61.1602C1344.18 79.2931 1354.35 122.781 1336.91 151.671" stroke="#0CA7E8" stroke-opacity="0.5" stroke-width="3"/>
<path d="M1084.63 63.0854C1077.36 81.6042 1067.19 126.018 1084.63 155.522" stroke="#0CA7E8" stroke-opacity="0.5" stroke-width="3"/>
</svg>
