<svg width="375" height="101" viewBox="0 0 375 101" fill="none" xmlns="http://www.w3.org/2000/svg">
<path d="M27.9268 75.1118C29.9593 68.8074 34.8713 67.2313 37.0732 67.2313C37.7083 71.9342 44.3141 82.2297 52.6983 86.5513C59.304 89.6018 63.4114 88.9239 64.6394 88.2036C64.8088 88.8391 65.1221 90.7966 65.0205 93.542C64.8935 96.9738 60.9554 100.914 54.2227 100.151C48.8365 99.5414 40.7995 93.9657 37.4543 91.2541C34.5325 88.5849 29.0701 83.1194 27.9268 75.1118Z" fill="white"/>
<path fill-rule="evenodd" clip-rule="evenodd" d="M33.4719 25.6022C35.7161 34.0758 38.1425 54.0572 37.6344 64.6323C45.914 84.8411 64.9717 87.519 66.6691 87.7575L66.7251 87.7654C71.1712 88.401 89.8452 89.9262 102.93 71.6231C111.822 54.2097 96.4509 54.7181 94.9265 54.8452C93.7832 55.2266 91.1663 56.701 89.8452 59.5481C88.8081 61.0423 88.1097 62.1028 87.5775 62.911L87.5772 62.9113L87.5771 62.9116C86.4796 64.5781 86.0884 65.172 84.8909 66.2847C83.1124 67.9371 78.2851 71.6231 71.0442 66.2847C65.3277 60.8192 66.471 54.3368 66.8521 52.8116C67.7413 49.8882 71.1712 43.9651 77.777 43.66C84.3827 43.3549 88.9136 49.0408 90.3533 51.9218C91.5389 53.3624 95.3076 55.557 100.897 52.8116C106.487 50.0661 103.734 41.1603 101.659 37.0505C100.526 35.0566 97.5036 30.8765 93.9293 28.9643L93.8683 29.0941C89.665 27.1208 82.0154 25.616 74.4001 26.5814C66.7957 27.5454 59.317 30.9566 55.2952 38.716L54.4074 38.2558C58.6318 30.1056 66.473 26.5783 74.2743 25.5893C81.4436 24.6805 88.6566 25.902 93.1799 27.7075C93.3989 25.6694 92.8474 21.4107 87.7535 18.3245C72.6857 14.1474 61.968 18.9122 56.509 23.1305C53.7331 25.2755 51.5895 27.9872 50.1364 30.1738C49.4112 31.2651 48.861 32.2209 48.4928 32.9026C48.3088 33.2433 48.1704 33.5152 48.0785 33.7009C48.0325 33.7938 47.9982 33.8651 47.9756 33.9126L47.9505 33.9658L47.9446 33.9785L47.9433 33.9814L47.943 33.9819L47.943 33.9819C47.9431 33.9818 47.9431 33.9818 47.4884 33.7738C47.0337 33.5658 47.0338 33.5656 47.0338 33.5655L47.034 33.5651L47.0347 33.5637L47.0367 33.5593L47.0441 33.5432L47.0724 33.4832C47.0972 33.4311 47.1339 33.3551 47.1823 33.2573C47.279 33.0618 47.4229 32.7793 47.613 32.4273C47.9931 31.7236 48.5587 30.7411 49.3036 29.6203C50.7907 27.3825 53.0045 24.5748 55.8975 22.3392C61.1176 18.3056 70.8817 13.8615 84.4169 16.508C73.8648 10.2277 57.4071 13.1057 49.2346 20.9834C47.9958 22.3515 46.7871 24.3191 45.8124 26.3187C44.8333 28.3274 44.1116 30.3248 43.8324 31.7207L42.8519 31.5246C43.1537 30.0155 43.9128 27.9336 44.9135 25.8806C45.1035 25.4908 45.3029 25.1006 45.5104 24.714V12.7183C44.8096 6.01842 44.3383 3.80227 41.4454 1.38021C38.3676 -1.19655 32.6986 0.080234 31.537 3.18393C30.6841 5.46279 30.7397 6.53898 30.828 8.24627C30.8595 8.85564 30.8952 9.5454 30.8952 10.3989C30.8952 12.5597 32.4556 21.765 33.4719 25.6022Z" fill="white"/>
<path d="M19.3433 15.5126C13.4106 29.163 5.1047 61.9008 19.3433 83.649" stroke="white" stroke-opacity="0.5"/>
<path d="M105.825 15.5126C111.099 28.988 118.482 61.3061 105.825 82.7753" stroke="white" stroke-opacity="0.5"/>
<path d="M119.805 27.7426C123.101 35.9679 127.715 55.6945 119.805 68.7991" stroke="white" stroke-opacity="0.5"/>
<path d="M5.36771 28.616C2.07173 37.0163 -2.54264 57.1626 5.36771 70.5461" stroke="white" stroke-opacity="0.5"/>
<path d="M144.207 33.893H135.135V26.9H160.461V33.893H151.137V71H144.207V33.893ZM185.758 59.408C185.758 62.936 184.792 65.855 182.86 68.165C180.928 70.475 178.009 71.63 174.103 71.63C170.197 71.63 167.236 70.475 165.22 68.165C163.246 65.813 162.259 62.894 162.259 59.408V51.092C162.259 47.102 163.267 44.057 165.283 41.957C167.341 39.815 170.281 38.744 174.103 38.744C177.757 38.744 180.613 39.857 182.671 42.083C184.729 44.267 185.758 47.27 185.758 51.092V59.408ZM178.891 51.092C178.891 48.866 178.429 47.417 177.505 46.745C176.581 46.073 175.447 45.737 174.103 45.737C170.827 45.737 169.189 47.522 169.189 51.092V60.038C169.189 61.718 169.651 62.936 170.575 63.692C171.499 64.448 172.675 64.826 174.103 64.826C175.489 64.826 176.623 64.427 177.505 63.629C178.429 62.831 178.891 61.634 178.891 60.038V51.092ZM193.144 26.9H200.074V64.637H215.887V71H193.144V26.9ZM223.726 33.704L219.82 33.578V26.9H230.656V71H223.726V33.704ZM240.64 26.9H253.492C256.978 26.9 259.876 27.866 262.186 29.798C264.496 31.73 265.651 34.481 265.651 38.051C265.651 39.731 265.378 41.327 264.832 42.839C264.286 44.351 263.173 45.674 261.493 46.808L261.43 46.934V46.997C263.278 47.837 264.811 49.181 266.029 51.029C267.289 52.877 267.919 55.229 267.919 58.085C267.919 60.269 267.478 62.348 266.596 64.322C265.714 66.254 264.265 67.85 262.249 69.11C260.233 70.37 257.629 71 254.437 71H240.64V26.9ZM250.594 44.981C252.988 44.981 254.752 44.54 255.886 43.658C257.02 42.776 257.587 41.264 257.587 39.122C257.587 37.148 257.062 35.783 256.012 35.027C254.962 34.229 253.366 33.83 251.224 33.83H247.57V44.981H250.594ZM251.413 64.637C253.345 64.637 254.899 64.49 256.075 64.196C257.293 63.86 258.238 63.209 258.91 62.243C259.624 61.277 259.981 59.849 259.981 57.959C259.981 55.565 259.246 53.927 257.776 53.045C256.306 52.121 254.374 51.659 251.98 51.659H247.57V64.637H251.413ZM291.406 58.715H282.208V71H275.278V26.9H290.209C292.981 26.9 295.291 27.593 297.139 28.979C298.987 30.323 300.352 32.129 301.234 34.397C302.158 36.665 302.62 39.164 302.62 41.894C302.62 43.952 302.536 45.737 302.368 47.249C302.2 48.761 301.759 50.336 301.045 51.974C300.373 53.612 299.281 55.082 297.769 56.384L302.683 71H295.627L291.406 58.715ZM288.571 52.1C290.629 52.1 292.141 51.575 293.107 50.525C294.115 49.433 294.724 48.194 294.934 46.808C295.186 45.422 295.312 43.784 295.312 41.894C295.312 39.668 294.997 37.988 294.367 36.854C293.737 35.678 292.855 34.901 291.721 34.523C290.587 34.103 289.117 33.893 287.311 33.893H282.208V52.1H288.571ZM327.659 59.471H317.516L315.059 71H307.247L317.579 26.9H327.344L338.495 71H330.242L327.659 59.471ZM319.154 52.1H326.021L322.43 38.492L319.154 52.1ZM348.912 58.715C349.122 60.563 349.878 62.054 351.18 63.188C352.482 64.322 354.183 64.889 356.283 64.889C358.047 64.889 359.475 64.595 360.567 64.007C361.701 63.419 362.52 62.705 363.024 61.865C363.528 61.025 363.78 60.206 363.78 59.408C363.78 57.56 363.318 56.027 362.394 54.809C361.512 53.549 360.399 52.562 359.055 51.848C357.753 51.092 355.968 50.231 353.7 49.265C351.222 48.215 349.248 47.27 347.778 46.43C346.35 45.548 345.111 44.372 344.061 42.902C343.053 41.39 342.549 39.479 342.549 37.169C342.549 35.321 343.074 33.578 344.124 31.94C345.174 30.26 346.77 28.895 348.912 27.845C351.054 26.795 353.679 26.27 356.787 26.27C358.845 26.27 360.546 26.417 361.89 26.711C363.234 27.005 364.599 27.488 365.985 28.16L363.78 34.712C362.268 34.208 361.029 33.851 360.063 33.641C359.139 33.431 358.068 33.326 356.85 33.326C354.456 33.326 352.692 33.746 351.558 34.586C350.424 35.426 349.92 36.497 350.046 37.799C350.172 38.849 350.802 39.752 351.936 40.508C353.112 41.264 354.918 42.188 357.354 43.28C360.21 44.54 362.583 45.737 364.473 46.871C366.363 48.005 367.98 49.559 369.324 51.533C370.71 53.507 371.403 55.922 371.403 58.778C371.403 62.516 370.164 65.603 367.686 68.039C365.208 70.475 361.428 71.693 356.346 71.693C353.238 71.693 350.571 71.126 348.345 69.992C346.161 68.816 344.481 67.325 343.305 65.519C342.171 63.671 341.562 61.76 341.478 59.786L348.912 58.715Z" fill="white"/>
</svg>
