<svg width="40" height="40" viewBox="0 0 40 40" fill="none" xmlns="http://www.w3.org/2000/svg">
<path fill-rule="evenodd" clip-rule="evenodd" d="M34.8914 0.435193C34.0942 0.153379 33.2367 0 32.3438 0H32.34C33.2346 0 34.0933 0.153349 34.8914 0.435193ZM34.8914 0.435193C37.0682 1.20469 38.7953 2.93176 39.5648 5.10858C38.7956 2.93054 37.0695 1.20436 34.8914 0.435193ZM40 7.66C40 6.76542 39.8467 5.90667 39.5648 5.10858C39.8466 5.90579 40 6.76333 40 7.65625V7.66ZM40 32.34C40 33.2346 39.8467 34.0933 39.5648 34.8914C38.7953 37.0682 37.0682 38.7953 34.8914 39.5648C34.0933 39.8467 33.2346 40 32.34 40H32.3438C33.2367 40 34.0942 39.8466 34.8914 39.5648C37.0695 38.7956 38.7956 37.0695 39.5648 34.8914C39.8466 34.0942 40 33.2367 40 32.3438V32.34ZM26.5625 40C26.1302 40 25.7812 39.651 25.7812 39.2188V23.8646C25.7812 23.4375 26.1302 23.0833 26.5625 23.0833H31.1667L31.5729 19.0677H26.5625C26.1302 19.0677 25.7812 18.7188 25.7812 18.2865V14.5729C25.7812 12.8802 26.9583 12.2813 27.9688 12.2813H31.6198V8.40104H26.5781C21.3438 8.40104 20.7813 12.4948 20.7813 14.2552V18.3177C20.7813 18.75 20.4323 19.099 20 19.099H16.1719V23.0833H20C20.4323 23.0833 20.7813 23.4375 20.7813 23.8646V26.875V33.1667V39.2188C20.7813 39.651 20.4323 40 20 40H26.5625ZM7.66 40C6.76543 40 5.90667 39.8467 5.10858 39.5648C2.93176 38.7953 1.20469 37.0682 0.435193 34.8914C0.153348 34.0933 0 33.2346 0 32.34V32.3438C0 33.2367 0.153379 34.0942 0.435193 34.8914C1.20436 37.0695 2.93054 38.7956 5.10858 39.5648C5.90579 39.8466 6.76333 40 7.65625 40H7.66ZM0 7.66C0 6.76543 0.153349 5.90667 0.435193 5.10858C1.20469 2.93176 2.93176 1.20469 5.10858 0.435193C5.90667 0.153349 6.76542 0 7.66 0H7.65625C6.76333 0 5.90579 0.153379 5.10858 0.435193C2.93054 1.20436 1.20436 2.93054 0.435193 5.10858C0.153379 5.90579 0 6.76333 0 7.65625V7.66Z" fill="#0477CB"/>
<path d="M7.65625 0H32.3438C36.5677 0 40 3.43229 40 7.65625V32.3438C40 36.5677 36.5677 40 32.3438 40H25.7812V39.2188V23.8646C25.7812 23.4375 26.1302 23.0833 26.5625 23.0833H31.1667L31.5729 19.0677H26.5625C26.1302 19.0677 25.7812 18.7188 25.7812 18.2865V14.5729C25.7812 12.8802 26.9583 12.2813 27.9688 12.2813H31.6198V8.40104H26.5781C21.3438 8.40104 20.7813 12.4948 20.7813 14.2552V18.3177C20.7813 18.75 20.4323 19.099 20 19.099H16.1719V23.0833H20C20.4323 23.0833 20.7813 23.4375 20.7813 23.8646V26.875V33.1667V39.2188V40H7.65625C3.43229 40 0 36.5677 0 32.3438V7.65625C0 3.43229 3.43229 0 7.65625 0Z" fill="white"/>
</svg>
