<svg width="48" height="51" viewBox="0 0 48 51" fill="none" xmlns="http://www.w3.org/2000/svg">
<path d="M9.1875 0H38.8126C43.8812 0 48 4.30597 48 9.60513V40.5768C48 45.8759 43.8812 50.1819 38.8126 50.1819H30.9374V49.2018V29.9393C30.9374 29.4034 31.3562 28.9591 31.875 28.9591H37.4L37.8875 23.9213H31.875C31.3562 23.9213 30.9374 23.4836 30.9374 22.9413V18.2824C30.9374 16.1588 32.35 15.4075 33.5626 15.4075H37.9438V10.5395H31.8937C25.6126 10.5395 24.9376 15.6753 24.9376 17.8838V22.9804C24.9376 23.5228 24.5188 23.9606 24 23.9606H19.4063V28.9591H24C24.5188 28.9591 24.9376 29.4034 24.9376 29.9393V33.716V41.6092V49.2018V50.1819H9.1875C4.11875 50.1819 0 45.8759 0 40.5768V9.60513C0 4.30597 4.11875 0 9.1875 0Z" fill="white"/>
</svg>
