<svg width="59" height="51" viewBox="0 0 59 51" fill="none" xmlns="http://www.w3.org/2000/svg">
<path d="M59 5.94077C56.8299 6.9479 54.4954 7.62908 52.0473 7.9333C54.5468 6.36591 56.4651 3.88587 57.3706 0.925882C55.0316 2.37801 52.4399 3.43144 49.6839 3.99925C47.4758 1.5381 44.3298 0 40.8463 0C34.1626 0 28.7417 5.67339 28.7417 12.6685C28.7417 13.6615 28.8491 14.628 29.0567 15.5558C18.9969 15.0276 10.0771 9.98441 4.10647 2.31754C3.06474 4.18821 2.46714 6.36591 2.46714 8.68724C2.46714 13.0814 4.60568 16.9606 7.85185 19.232C5.86858 19.1667 4.00085 18.597 2.36964 17.6456C2.36874 17.6995 2.36874 17.7533 2.36874 17.8063C2.36874 23.9444 6.54292 29.0642 12.0793 30.2272C11.0646 30.5182 9.99312 30.6722 8.89089 30.6722C8.10913 30.6722 7.35176 30.5938 6.61333 30.4465C8.15338 35.4783 12.6228 39.1412 17.9208 39.2442C13.7774 42.6426 8.55869 44.6673 2.886 44.6673C1.91106 44.6673 0.945148 44.6077 0 44.4896C5.35404 48.0854 11.7182 50.1819 18.5536 50.1819C40.8182 50.1819 52.9942 30.8782 52.9942 14.1357C52.9942 13.5869 52.9824 13.0399 52.959 12.4975C55.3259 10.7119 57.3778 8.48128 59 5.94077Z" fill="white"/>
</svg>
