<svg width="31" height="25" viewBox="0 0 31 25" fill="none" xmlns="http://www.w3.org/2000/svg">
<path d="M31 2.95962C29.8598 3.46136 28.6332 3.80071 27.3469 3.95227C28.6602 3.17142 29.6681 1.93589 30.1439 0.461263C28.9149 1.18469 27.5532 1.7095 26.1051 1.99237C24.9449 0.766262 23.2919 0 21.4616 0C17.9498 0 15.1016 2.82641 15.1016 6.31131C15.1016 6.806 15.158 7.2875 15.2671 7.74969C9.98141 7.48656 5.29473 4.97411 2.15764 1.15457C1.61029 2.08651 1.29629 3.17142 1.29629 4.32788C1.29629 6.517 2.41993 8.44956 4.12555 9.58112C3.08349 9.54862 2.10214 9.26481 1.24506 8.79081C1.24459 8.81769 1.24459 8.8445 1.24459 8.87088C1.24459 11.9288 3.43781 14.4794 6.34675 15.0588C5.81363 15.2038 5.25062 15.2805 4.67148 15.2805C4.26073 15.2805 3.86279 15.2414 3.4748 15.1681C4.28398 17.6749 6.63231 19.4997 9.41601 19.551C7.23896 21.244 4.49694 22.2527 1.51637 22.2527C1.00412 22.2527 0.496603 22.223 0 22.1642C2.81314 23.9556 6.15703 25 9.7485 25C21.4469 25 27.8444 15.3831 27.8444 7.04225C27.8444 6.76881 27.8382 6.49631 27.8259 6.22611C29.0695 5.33654 30.1477 4.22527 31 2.95962Z" fill="white"/>
</svg>
