<svg width="1920" height="1059" viewBox="0 0 1920 1059" fill="none" xmlns="http://www.w3.org/2000/svg">
<rect width="1920" height="1059" fill="url(#paint0_linear)"/>
<circle cx="722.5" cy="454.5" r="2.5" fill="#C4C4C4"/>
<circle cx="712.5" cy="235.5" r="2.5" fill="#C4C4C4"/>
<circle cx="793.5" cy="242.5" r="2.5" fill="#C4C4C4"/>
<circle cx="948.5" cy="239.5" r="2.5" fill="#C4C4C4"/>
<circle cx="1052.5" cy="252.5" r="2.5" fill="#C4C4C4"/>
<circle cx="1158.5" cy="243.5" r="2.5" fill="#C4C4C4"/>
<circle cx="1288.5" cy="240.5" r="2.5" fill="#C4C4C4"/>
<circle cx="1859.5" cy="253.5" r="2.5" fill="#C4C4C4"/>
<circle cx="1809.5" cy="355.5" r="2.5" fill="#C4C4C4"/>
<circle cx="1658.5" cy="430.5" r="2.5" fill="#C4C4C4"/>
<circle cx="1556.5" cy="388.5" r="2.5" fill="#C4C4C4"/>
<circle cx="1561.5" cy="492.5" r="2.5" fill="#C4C4C4"/>
<circle cx="1390.5" cy="388.5" r="2.5" fill="#C4C4C4"/>
<circle cx="1699.5" cy="344.5" r="2.5" fill="#C4C4C4"/>
<circle cx="1498.5" cy="235.5" r="2.5" fill="#C4C4C4"/>
<circle cx="1642.5" cy="219.5" r="2.5" fill="#C4C4C4"/>
<circle cx="1736.5" cy="258.5" r="2.5" fill="#C4C4C4"/>
<circle cx="869.5" cy="266.5" r="2.5" fill="#C4C4C4"/>
<circle cx="621.5" cy="235.5" r="2.5" fill="#C4C4C4"/>
<circle cx="315.5" cy="235.5" r="2.5" fill="#C4C4C4"/>
<circle cx="491.5" cy="235.5" r="2.5" fill="#C4C4C4"/>
<circle cx="56.5" cy="249.5" r="2.5" fill="#C4C4C4"/>
<circle cx="44.5" cy="384.5" r="2.5" fill="#C4C4C4"/>
<circle cx="214.5" cy="312.5" r="2.5" fill="#C4C4C4"/>
<circle cx="214.5" cy="235.5" r="2.5" fill="#C4C4C4"/>
<circle cx="433.5" cy="416.5" r="2.5" fill="#C4C4C4"/>
<circle cx="626.5" cy="452.5" r="2.5" fill="#C4C4C4"/>
<circle cx="352.5" cy="473.5" r="2.5" fill="#C4C4C4"/>
<circle cx="307.5" cy="577.5" r="2.5" fill="#C4C4C4"/>
<circle cx="151.5" cy="659.5" r="2.5" fill="#C4C4C4"/>
<circle cx="54.5" cy="609.5" r="2.5" fill="#C4C4C4"/>
<circle cx="428.5" cy="636.5" r="2.5" fill="#C4C4C4"/>
<circle cx="26.5" cy="519.5" r="2.5" fill="#C4C4C4"/>
<circle cx="199.5" cy="399.5" r="2.5" fill="#C4C4C4"/>
<circle cx="586.5" cy="565.5" r="2.5" fill="#C4C4C4"/>
<circle cx="666.5" cy="612.5" r="2.5" fill="#C4C4C4"/>
<circle cx="535.5" cy="447.5" r="2.5" fill="#C4C4C4"/>
<circle cx="717.5" cy="562.5" r="2.5" fill="#C4C4C4"/>
<circle cx="1163.5" cy="552.5" r="2.5" fill="#C4C4C4"/>
<circle cx="1224.5" cy="615.5" r="2.5" fill="#C4C4C4"/>
<circle cx="1594.5" cy="685.5" r="2.5" fill="#C4C4C4"/>
<circle cx="1539.5" cy="582.5" r="2.5" fill="#C4C4C4"/>
<circle cx="1635.5" cy="527.5" r="2.5" fill="#C4C4C4"/>
<circle cx="1609.5" cy="587.5" r="2.5" fill="#C4C4C4"/>
<circle cx="1716.5" cy="550.5" r="2.5" fill="#C4C4C4"/>
<circle cx="1523.5" cy="660.5" r="2.5" fill="#C4C4C4"/>
<circle cx="1685.5" cy="618.5" r="2.5" fill="#C4C4C4"/>
<circle cx="1354.5" cy="637.5" r="2.5" fill="#C4C4C4"/>
<circle cx="1307.5" cy="686.5" r="2.5" fill="#C4C4C4"/>
<circle cx="1235.5" cy="683.5" r="2.5" fill="#C4C4C4"/>
<circle cx="1077.5" cy="693.5" r="2.5" fill="#C4C4C4"/>
<circle cx="963.5" cy="727.5" r="2.5" fill="#C4C4C4"/>
<circle cx="951.5" cy="671.5" r="2.5" fill="#C4C4C4"/>
<circle cx="1165.5" cy="648.5" r="2.5" fill="#C4C4C4"/>
<circle cx="862.5" cy="704.5" r="2.5" fill="#C4C4C4"/>
<circle cx="766.5" cy="669.5" r="2.5" fill="#C4C4C4"/>
<circle cx="1426.5" cy="652.5" r="2.5" fill="#C4C4C4"/>
<circle cx="1438.5" cy="712.5" r="2.5" fill="#C4C4C4"/>
<circle cx="1237.5" cy="503.5" r="2.5" fill="#C4C4C4"/>
<circle cx="1304.5" cy="455.5" r="2.5" fill="#C4C4C4"/>
<circle cx="1293.5" cy="577.5" r="2.5" fill="#C4C4C4"/>
<circle cx="1457.5" cy="448.5" r="2.5" fill="#C4C4C4"/>
<circle cx="1185.5" cy="460.5" r="2.5" fill="#C4C4C4"/>
<circle cx="1242.5" cy="404.5" r="2.5" fill="#C4C4C4"/>
<circle cx="455.5" cy="511.5" r="2.5" fill="#C4C4C4"/>
<path d="M1469 540C1469 572.033 1442.14 598 1409 598C1375.86 598 1349 572.033 1349 540C1349 507.967 1375.86 482 1409 482C1442.14 482 1469 507.967 1469 540Z" fill="white" fill-opacity="0.19"/>
<path d="M1454.71 540C1454.71 564.406 1434.25 584.19 1409 584.19C1383.75 584.19 1363.29 564.406 1363.29 540C1363.29 515.594 1383.75 495.81 1409 495.81C1434.25 495.81 1454.71 515.594 1454.71 540Z" fill="white" fill-opacity="0.19"/>
<path d="M1446.14 540C1446.14 559.83 1429.51 575.905 1409 575.905C1388.49 575.905 1371.86 559.83 1371.86 540C1371.86 520.17 1388.49 504.095 1409 504.095C1429.51 504.095 1446.14 520.17 1446.14 540Z" fill="white"/>
<path d="M407.177 746.029C406.994 747.69 409.691 755.166 410.536 758.635L413.555 757.746C412.71 754.277 409.234 747.71 409.417 746.049C409.655 743.897 412.555 739.909 415.72 736.154L414.94 734.461C411.775 738.215 407.414 743.878 407.177 746.029Z" fill="#D15153" stroke="black"/>
<circle cx="415.082" cy="737.333" r="1.13228" fill="#01D9A8"/>
<circle cx="413.974" cy="735.502" r="1.13228" fill="#01D9A8"/>
<path d="M415.107 741.501C415.423 738.4 415.158 736.82 415.017 736.514C413.848 737.853 413.331 739.14 412.914 740.272C412.746 740.73 412.553 741.501 412.367 741.911C411.964 739.556 413.844 736.495 414.835 735.259C412.265 736.046 411.082 737.574 410.915 737.791C410.747 738.007 409.301 740.392 409.132 740.585C409.091 738.657 409.831 737.283 410.099 736.856C411.076 735.299 412.912 734.736 413.637 734.43C412.964 734.255 412.072 734.416 410.938 734.575C410.047 734.803 409.3 735.404 409.049 735.739C409.084 735.382 409.556 734.575 409.735 734.395C410.707 733.421 412.395 733.206 413.118 733.22C411.703 732.534 408.975 733.112 409.145 732.945C409.634 732.178 411.17 731.886 411.877 731.836C413.781 731.781 415.001 732.803 415.451 733.675C415.65 732.944 416.072 732.427 416.258 732.26C417.545 731.163 418.696 731.149 418.937 731.117C419.727 731.015 420.928 731.512 421.25 731.816C421.581 732.129 421.635 732.25 421.701 732.501C421.587 732.326 420.884 732.293 420.546 732.298C420.45 732.297 419.275 732.262 418.617 732.498C417.303 732.968 416.648 733.629 416.485 733.9C416.631 733.733 417.328 733.497 417.588 733.43C418.335 733.237 419.404 733.42 419.837 733.568C420.269 733.717 420.503 733.96 420.672 734.177C420.859 734.417 420.864 734.514 420.888 734.613C420.439 734.505 419.445 734.288 419.059 734.284C418.674 734.281 418.022 734.595 417.973 734.683C418.213 734.838 418.746 735.189 419.178 735.572C419.638 735.981 420.432 737.603 420.527 737.983C419.997 737.357 419.443 736.586 419.106 736.273C418.768 735.96 418.084 735.577 417.53 735.572C417.949 736.177 418.503 737.357 418.576 737.67C418.61 737.82 418.865 739.188 418.628 739.509C418.527 739.284 418.317 738.61 418.287 738.513C418.094 737.911 417.337 735.642 416.662 735.685C416.852 735.956 417.182 736.878 417.322 737.305C417.652 738.223 417.874 740.369 417.869 740.947C417.53 740.489 417.175 738.995 417.13 738.827C416.913 738.007 416.622 736.806 416.263 736.514C416.263 737.638 415.805 739.766 415.709 740.031C415.633 740.239 415.227 741.356 415.107 741.501Z" fill="#5E8F84" stroke="black"/>
<path d="M406 763.713C406 759.455 409.452 756.003 413.709 756.003H418.046C422.303 756.003 425.755 759.455 425.755 763.713H406Z" fill="#A37300"/>
<path d="M415.789 746.295V755.979C415.789 756.172 416.126 756.461 416.511 756.461C416.897 756.461 417.234 756.172 417.234 755.979V752.39C417.234 752.053 417.234 751.739 417.523 751.739C417.812 751.739 417.812 752.053 417.812 752.39V755.979C417.812 756.148 418.044 756.461 418.487 756.461C418.93 756.461 419.21 756.172 419.21 755.979V746.078C421.079 746.078 421.089 745.693 421.089 745.355V742.585C421.089 742.392 421.016 741.982 420.535 741.982C420.053 741.982 419.98 742.368 419.98 742.585V744.681C419.98 745.066 419.619 745.187 419.21 745.187H416.126C415.957 745.187 414.866 745.187 414.729 745.355C414.415 745.741 414.488 748.15 414.488 748.873C414.488 749.017 414.618 749.427 415.042 749.427C415.466 749.427 415.596 749.041 415.596 748.873V746.295C415.588 746.223 415.596 746.078 415.692 746.078C415.789 746.078 415.797 746.223 415.789 746.295Z" fill="#FFECA7" stroke="black"/>
<path d="M417.226 756.028H415.781C415.781 756.076 415.949 756.485 416.503 756.485C416.947 756.485 417.226 756.172 417.226 756.028Z" fill="#2E2000" stroke="black"/>
<path d="M419.202 756.028H417.805C417.805 756.124 417.968 756.485 418.503 756.485C418.932 756.485 419.202 756.18 419.202 756.028Z" fill="#2E2000" stroke="black"/>
<path d="M414.504 746.584H415.588V746.271C415.588 746.214 415.608 746.102 415.685 746.102C415.762 746.102 415.781 746.214 415.781 746.271V750.246H419.202V746.102H419.804V745.066C419.539 745.211 419.226 745.187 418.407 745.187C418.295 745.428 417.949 745.933 417.468 745.933C416.986 745.933 416.64 745.403 416.528 745.163C415.998 745.138 414.919 745.172 414.745 745.307C414.572 745.442 414.512 746.231 414.504 746.584Z" fill="white" stroke="black" stroke-width="0.5"/>
<path d="M416.311 745.163H416.528C416.624 745.403 417.01 745.933 417.443 745.933C417.944 745.933 418.295 745.419 418.407 745.187H418.576C418.455 745.476 418.06 746.102 417.443 746.102C416.827 746.102 416.431 745.46 416.311 745.163Z" fill="#0CA7E8" stroke="black" stroke-width="0.5"/>
<path d="M419.202 750.246H415.781V756.028H417.226V752.149C417.226 752.02 417.284 751.763 417.515 751.763C417.747 751.763 417.804 752.02 417.804 752.149V756.028H419.202V750.246Z" fill="#0433A2" stroke="black"/>
<circle cx="417.443" cy="743.789" r="1.06592" fill="#FFECA7" stroke="black"/>
<path d="M419.66 746.102V745.138L419.804 745.066V746.102H419.66Z" fill="#0CA7E8" stroke="black" stroke-width="0.5"/>
<path d="M414.504 746.391C414.504 746.439 414.502 746.514 414.504 746.584H415.588V746.391H414.504Z" fill="#0CA7E8" stroke="black" stroke-width="0.5"/>
<rect y="759" width="1920" height="300" fill="#0CA7E8"/>
<path d="M293.265 743.676C292.757 748.282 300.236 769.013 302.58 778.632L310.952 776.166C308.609 766.548 298.97 748.336 299.478 743.731C300.136 737.765 308.178 726.704 316.954 716.292L314.791 711.597C306.014 722.009 293.923 737.711 293.265 743.676Z" fill="#D15153" stroke="black"/>
<circle cx="315.186" cy="719.561" r="3.13984" fill="#01D9A8"/>
<circle cx="312.112" cy="714.484" r="3.13984" fill="#01D9A8"/>
<path d="M315.252 731.119C316.129 722.521 315.396 718.139 315.003 717.289C311.764 721.002 310.33 724.572 309.173 727.711C308.705 728.981 308.171 731.119 307.657 732.257C306.538 725.727 311.752 717.239 314.499 713.811C307.371 715.993 304.093 720.229 303.628 720.831C303.164 721.432 299.152 728.046 298.685 728.58C298.571 723.234 300.622 719.424 301.366 718.239C304.076 713.92 309.167 712.361 311.178 711.51C309.312 711.026 306.836 711.472 303.693 711.913C301.223 712.547 299.152 714.211 298.453 715.14C298.551 714.15 299.861 711.913 300.356 711.416C303.052 708.714 307.734 708.118 309.738 708.157C305.813 706.252 298.25 707.856 298.721 707.393C300.076 705.267 304.337 704.458 306.298 704.319C311.577 704.165 314.959 707.001 316.207 709.417C316.76 707.39 317.93 705.958 318.446 705.494C322.014 702.453 325.206 702.412 325.874 702.326C328.065 702.043 331.396 703.419 332.288 704.263C333.205 705.131 333.357 705.465 333.539 706.161C333.223 705.677 331.273 705.584 330.337 705.598C330.07 705.596 326.811 705.501 324.988 706.153C321.342 707.457 319.527 709.29 319.075 710.043C319.48 709.579 321.413 708.925 322.133 708.739C324.204 708.204 327.17 708.711 328.369 709.122C329.568 709.533 330.217 710.209 330.684 710.81C331.203 711.477 331.219 711.745 331.283 712.02C330.039 711.72 327.283 711.117 326.214 711.107C325.145 711.098 323.338 711.969 323.202 712.213C323.866 712.642 325.345 713.616 326.542 714.678C327.819 715.811 330.02 720.31 330.283 721.365C328.814 719.628 327.277 717.49 326.342 716.622C325.407 715.753 323.51 714.691 321.974 714.678C323.135 716.355 324.672 719.628 324.872 720.497C324.968 720.913 325.674 724.705 325.018 725.594C324.739 724.972 324.156 723.102 324.071 722.835C323.536 721.165 321.437 714.874 319.566 714.991C320.094 715.744 321.007 718.299 321.397 719.483C322.31 722.03 322.926 727.981 322.912 729.584C321.974 728.313 320.988 724.171 320.864 723.703C320.263 721.432 319.454 718.1 318.459 717.289C318.459 720.406 317.19 726.309 316.922 727.043L316.922 727.044C316.713 727.62 315.586 730.718 315.252 731.119Z" fill="#5E8F84" stroke="black"/>
<path d="M290 792.713C290 780.906 299.571 771.335 311.378 771.335H323.403C335.209 771.335 344.78 780.906 344.78 792.713H290Z" fill="#A37300"/>
<path d="M317.143 744.413V771.268C317.143 771.803 318.078 772.605 319.147 772.605C320.216 772.605 321.151 771.803 321.151 771.268V761.314C321.151 760.379 321.151 759.511 321.953 759.511C322.755 759.511 322.755 760.379 322.755 761.314V771.268C322.755 771.736 323.396 772.605 324.625 772.605C325.854 772.605 326.629 771.803 326.629 771.268V743.812C331.814 743.812 331.84 742.743 331.84 741.807V734.125C331.84 733.59 331.64 732.455 330.304 732.455C328.968 732.455 328.767 733.524 328.767 734.125V739.937C328.767 741.006 327.765 741.34 326.629 741.34H318.078C317.611 741.34 314.584 741.34 314.204 741.807C313.335 742.876 313.536 749.557 313.536 751.561C313.536 751.962 313.896 753.097 315.072 753.097C316.248 753.097 316.609 752.029 316.609 751.561V744.413C316.586 744.212 316.609 743.812 316.876 743.812C317.143 743.812 317.165 744.212 317.143 744.413Z" fill="#FFECA7" stroke="black"/>
<path d="M321.131 771.402H317.123C317.123 771.536 317.591 772.671 319.127 772.671C320.356 772.671 321.131 771.803 321.131 771.402Z" fill="#2E2000" stroke="black"/>
<path d="M326.609 771.402H322.734C322.734 771.669 323.186 772.671 324.672 772.671C325.86 772.671 326.609 771.824 326.609 771.402Z" fill="#2E2000" stroke="black"/>
<path d="M313.582 745.214H316.588V744.346C316.588 744.19 316.642 743.878 316.855 743.878C317.069 743.878 317.123 744.19 317.123 744.346V755.369H326.609V743.878H328.279V741.006C327.544 741.407 326.676 741.34 324.404 741.34C324.093 742.008 323.135 743.411 321.799 743.411C320.463 743.411 319.505 741.941 319.194 741.273C317.724 741.206 314.731 741.3 314.25 741.674C313.769 742.048 313.604 744.235 313.582 745.214Z" fill="white" stroke="black" stroke-width="0.5"/>
<path d="M318.593 741.273H319.194C319.461 741.941 320.53 743.411 321.733 743.411C323.122 743.411 324.093 741.985 324.405 741.34H324.872C324.538 742.141 323.443 743.878 321.733 743.878C320.022 743.878 318.927 742.097 318.593 741.273Z" fill="#0CA7E8" stroke="black" stroke-width="0.5"/>
<path d="M326.609 755.369H317.123V771.402H321.131V760.646C321.131 760.29 321.292 759.578 321.933 759.578C322.574 759.578 322.735 760.29 322.735 760.646V771.402H326.609V755.369Z" fill="#0433A2" stroke="black"/>
<circle cx="321.732" cy="737.465" r="3.84233" fill="#FFECA7" stroke="black"/>
<path d="M327.878 743.878V741.206L328.279 741.006V743.878H327.878Z" fill="#0CA7E8" stroke="black" stroke-width="0.5"/>
<path d="M313.582 744.68C313.582 744.814 313.576 745.022 313.582 745.214H316.589V744.68H313.582Z" fill="#0CA7E8" stroke="black" stroke-width="0.5"/>
<path d="M130.501 748.164C130.268 750.282 133.707 759.815 134.784 764.238L138.634 763.104C137.557 758.681 133.124 750.307 133.358 748.189C133.661 745.446 137.359 740.36 141.394 735.572L140.399 733.413C136.364 738.201 130.804 745.421 130.501 748.164Z" fill="#D15153" stroke="black"/>
<circle cx="140.581" cy="737.075" r="1.4438" fill="#01D9A8"/>
<circle cx="139.168" cy="734.741" r="1.4438" fill="#01D9A8"/>
<path d="M140.612 742.39C141.015 738.436 140.678 736.421 140.497 736.031C139.008 737.738 138.348 739.379 137.817 740.823C137.602 741.407 137.356 742.39 137.119 742.913C136.605 739.91 139.002 736.007 140.265 734.431C136.988 735.435 135.481 737.382 135.267 737.659C135.053 737.935 133.209 740.977 132.994 741.222C132.941 738.764 133.885 737.012 134.226 736.467C135.473 734.481 137.814 733.764 138.739 733.373C137.88 733.151 136.742 733.356 135.296 733.558C134.161 733.85 133.208 734.615 132.887 735.042C132.932 734.587 133.534 733.558 133.762 733.33C135.002 732.087 137.155 731.813 138.076 731.831C136.272 730.955 132.794 731.693 133.011 731.48C133.634 730.502 135.593 730.13 136.494 730.066C138.922 729.996 140.477 731.299 141.051 732.41C141.305 731.479 141.843 730.82 142.081 730.607C143.721 729.208 145.189 729.189 145.496 729.15C146.504 729.02 148.035 729.652 148.445 730.041C148.867 730.44 148.937 730.593 149.021 730.913C148.875 730.691 147.979 730.648 147.549 730.655C147.426 730.654 145.927 730.61 145.089 730.91C143.412 731.509 142.577 732.352 142.37 732.698C142.556 732.485 143.445 732.184 143.776 732.099C144.728 731.853 146.092 732.086 146.643 732.275C147.195 732.464 147.493 732.775 147.708 733.051C147.947 733.358 147.954 733.481 147.983 733.608C147.411 733.47 146.144 733.192 145.652 733.188C145.161 733.184 144.33 733.584 144.268 733.696C144.573 733.893 145.253 734.341 145.804 734.83C146.391 735.351 147.403 737.42 147.524 737.905C146.848 737.106 146.141 736.123 145.711 735.724C145.281 735.324 144.409 734.836 143.703 734.83C144.237 735.601 144.943 737.106 145.036 737.505C145.08 737.697 145.404 739.441 145.103 739.849C144.974 739.563 144.706 738.703 144.667 738.58C144.421 737.812 143.456 734.92 142.595 734.974C142.838 735.32 143.258 736.495 143.438 737.039C143.857 738.21 144.141 740.947 144.134 741.684C143.703 741.099 143.249 739.195 143.192 738.98C142.916 737.935 142.544 736.403 142.087 736.031C142.087 737.464 141.503 740.178 141.38 740.516L141.38 740.516C141.284 740.781 140.766 742.205 140.612 742.39Z" fill="#5E8F84" stroke="black"/>
<path d="M129 770.713C129 765.284 133.401 760.882 138.83 760.882H144.36C149.789 760.882 154.19 765.284 154.19 770.713H129Z" fill="#A37300"/>
<path d="M141.481 748.503V760.852C141.481 761.098 141.911 761.466 142.403 761.466C142.894 761.466 143.324 761.098 143.324 760.852V756.275C143.324 755.845 143.324 755.445 143.693 755.445C144.061 755.445 144.061 755.845 144.061 756.275V760.852C144.061 761.067 144.356 761.466 144.922 761.466C145.487 761.466 145.843 761.098 145.843 760.852V748.226C148.227 748.226 148.239 747.735 148.239 747.305V743.772C148.239 743.526 148.147 743.004 147.533 743.004C146.918 743.004 146.826 743.496 146.826 743.772V746.445C146.826 746.936 146.365 747.09 145.843 747.09H141.911C141.696 747.09 140.304 747.09 140.129 747.305C139.73 747.796 139.822 750.868 139.822 751.79C139.822 751.974 139.988 752.496 140.529 752.496C141.069 752.496 141.235 752.005 141.235 751.79V748.503C141.225 748.411 141.235 748.226 141.358 748.226C141.481 748.226 141.491 748.411 141.481 748.503Z" fill="#FFECA7" stroke="black"/>
<path d="M143.315 760.913H141.472C141.472 760.975 141.687 761.497 142.393 761.497C142.958 761.497 143.315 761.098 143.315 760.913Z" fill="#2E2000" stroke="black"/>
<path d="M145.834 760.913H144.052C144.052 761.036 144.26 761.497 144.943 761.497C145.489 761.497 145.834 761.107 145.834 760.913Z" fill="#2E2000" stroke="black"/>
<path d="M139.844 748.871H141.226V748.472C141.226 748.4 141.251 748.257 141.349 748.257C141.447 748.257 141.472 748.4 141.472 748.472V753.541H145.834V748.257H146.602V746.936C146.264 747.12 145.865 747.09 144.82 747.09C144.677 747.397 144.237 748.042 143.622 748.042C143.008 748.042 142.568 747.366 142.424 747.059C141.748 747.028 140.372 747.071 140.151 747.243C139.93 747.415 139.854 748.421 139.844 748.871Z" fill="white" stroke="black" stroke-width="0.5"/>
<path d="M142.147 747.059H142.424C142.547 747.366 143.038 748.042 143.591 748.042C144.23 748.042 144.677 747.387 144.82 747.09H145.035C144.881 747.458 144.378 748.257 143.591 748.257C142.805 748.257 142.301 747.438 142.147 747.059Z" fill="#0CA7E8" stroke="black" stroke-width="0.5"/>
<path d="M145.834 753.541H141.472V760.913H143.315V755.968C143.315 755.804 143.389 755.476 143.683 755.476C143.978 755.476 144.052 755.804 144.052 755.968V760.913H145.834V753.541Z" fill="#0433A2" stroke="black"/>
<circle cx="143.591" cy="745.308" r="1.49675" fill="#FFECA7" stroke="black"/>
<path d="M146.418 748.257V747.028L146.602 746.936V748.257H146.418Z" fill="#0CA7E8" stroke="black" stroke-width="0.5"/>
<path d="M139.844 748.626C139.844 748.687 139.841 748.783 139.844 748.871H141.226V748.626H139.844Z" fill="#0CA7E8" stroke="black" stroke-width="0.5"/>
<path d="M13.0902 734.66C14.8244 734.66 16.2302 733.254 16.2302 731.52C16.2302 729.786 14.8244 728.38 13.0902 728.38C11.356 728.38 9.9502 729.786 9.9502 731.52C9.9502 733.254 11.356 734.66 13.0902 734.66Z" fill="#01D9A8"/>
<path d="M10.0199 729.59C11.7541 729.59 13.1599 728.184 13.1599 726.45C13.1599 724.716 11.7541 723.31 10.0199 723.31C8.28571 723.31 6.87988 724.716 6.87988 726.45C6.87988 728.184 8.28571 729.59 10.0199 729.59Z" fill="#01D9A8"/>
<path d="M15.0502 756.37V783.23C15.0502 783.77 15.9902 784.57 17.0502 784.57C18.1202 784.57 19.0502 783.77 19.0502 783.23V773.28C19.0502 772.35 19.0502 771.48 19.8502 771.48C20.6502 771.48 20.6502 772.35 20.6502 773.28V783.23C20.6502 783.7 21.2902 784.57 22.5202 784.57C23.7502 784.57 24.5202 783.77 24.5202 783.23V755.77C29.7002 755.77 29.7302 754.7 29.7302 753.76V746.08C29.7302 745.54 29.5302 744.41 28.1902 744.41C26.8502 744.41 26.6502 745.48 26.6502 746.08V751.89C26.6502 752.96 25.6502 753.29 24.5102 753.29H15.9602C15.4902 753.29 12.4702 753.29 12.0902 753.76C11.2202 754.83 11.4202 761.51 11.4202 763.51C11.4202 763.91 11.7802 765.05 12.9602 765.05C14.1402 765.05 14.5002 763.98 14.5002 763.51V756.36C14.4802 756.16 14.5002 755.76 14.7702 755.76C15.0502 755.77 15.0702 756.17 15.0502 756.37Z" fill="#FFECA7" stroke="black"/>
<path d="M19.0398 783.36H15.0298C15.0298 783.49 15.4998 784.63 17.0298 784.63C18.2598 784.63 19.0398 783.76 19.0398 783.36Z" fill="#2E2000" stroke="black"/>
<path d="M24.5199 783.36H20.6499C20.6499 783.63 21.0999 784.63 22.5899 784.63C23.7699 784.63 24.5199 783.79 24.5199 783.36Z" fill="#2E2000" stroke="black"/>
<path d="M11.4902 757.18H14.5002V756.31C14.5002 756.15 14.5502 755.84 14.7702 755.84C14.9802 755.84 15.0402 756.15 15.0402 756.31V767.33H24.5302V755.84H26.2002V752.97C25.4702 753.37 24.6002 753.3 22.3302 753.3C22.0202 753.97 21.0602 755.37 19.7202 755.37C18.3802 755.37 17.4302 753.9 17.1102 753.23C15.6402 753.16 12.6502 753.26 12.1702 753.63C11.6802 754.01 11.5102 756.2 11.4902 757.18Z" fill="white" stroke="black" stroke-width="0.5"/>
<path d="M16.5 753.23H17.1C17.37 753.9 18.44 755.37 19.64 755.37C21.03 755.37 22 753.94 22.31 753.3H22.78C22.45 754.1 21.35 755.84 19.64 755.84C17.93 755.84 16.83 754.06 16.5 753.23Z" fill="#0CA7E8" stroke="black" stroke-width="0.5"/>
<path d="M24.5198 767.33H15.0298V783.36H19.0398V772.61C19.0398 772.25 19.1998 771.54 19.8398 771.54C20.4798 771.54 20.6398 772.25 20.6398 772.61V783.37H24.5098V767.33H24.5198Z" fill="#0433A2" stroke="black"/>
<path d="M19.6744 753.271C21.7952 753.253 23.4994 751.518 23.4808 749.398C23.4622 747.277 21.7279 745.573 19.6071 745.591C17.4863 745.61 15.7822 747.344 15.8008 749.465C15.8194 751.586 17.5537 753.29 19.6744 753.271Z" fill="#FFECA7" stroke="black"/>
<path d="M11.4898 756.64C11.4898 756.77 11.4798 756.98 11.4898 757.17H14.4998V756.64H11.4898Z" fill="#0CA7E8" stroke="black" stroke-width="0.5"/>
<path d="M14.86 728.25L12.7 723.55C8.77 728.21 4.19 733.92 0.25 739.35V748.26C3.48 742.45 9 735.21 14.86 728.25Z" fill="#D15153"/>
<path d="M0.25 789.65C0.33 789.97 0.41 790.29 0.49 790.59L8.86 788.12C7.41 782.16 3.16 772.9 0.25 765.63V789.65Z" fill="#D15153"/>
<path d="M42.69 804.67C42.69 792.86 33.12 783.29 21.31 783.29H9.28C6.05 783.29 2.99 784.03 0.25 785.31V804.66H42.69V804.67Z" fill="#A37300"/>
<path d="M29.19 723.98C29.13 723.7 29.11 723.44 28.59 722.77C28.12 722.17 27.47 721.49 26.27 721.08C25.07 720.67 22.11 720.16 20.03 720.7C19.31 720.89 17.38 721.54 16.97 722C17.42 721.25 19.24 719.41 22.88 718.11C24.7 717.46 27.96 717.55 28.23 717.56C29.17 717.55 31.12 717.64 31.43 718.12C31.25 717.42 31.1 717.09 30.18 716.22C29.3 715.38 25.97 714 23.78 714.29C23.11 714.38 19.92 714.42 16.35 717.46C15.83 717.92 14.66 719.36 14.11 721.38C12.86 718.96 9.48 716.13 4.2 716.28C3.23 716.35 1.71 716.58 0.25 717.05V719.21C2.61 719.09 5.61 719.13 7.64 720.12C6.07 720.09 2.86 720.45 0.25 721.91V724.34C0.68 724.16 1.13 724 1.6 723.87C4.74 723.43 7.22 722.98 9.09 723.47C7.3 724.23 3.07 725.55 0.26 728.88V734.79C0.89 733.78 1.4 732.98 1.54 732.79C2 732.19 5.28 727.95 12.41 725.77C9.66 729.2 4.44 737.69 5.56 744.22C6.07 743.08 6.61 740.94 7.08 739.67C8.24 736.53 9.67 732.96 12.91 729.25C13.3 730.1 14.04 734.48 13.16 743.08C13.49 742.68 14.62 739.58 14.83 739C15.1 738.27 16.37 732.36 16.37 729.25C17.37 730.06 18.17 733.39 18.78 735.66C18.9 736.13 19.89 740.27 20.83 741.54C20.84 739.94 20.23 733.99 19.31 731.44C18.92 730.26 18.01 727.7 17.48 726.95C19.35 726.83 21.45 733.12 21.98 734.79C22.07 735.06 22.65 736.93 22.93 737.55C23.59 736.66 22.88 732.87 22.78 732.45C22.58 731.58 21.04 728.31 19.88 726.63C21.42 726.64 23.31 727.7 24.25 728.57C25.19 729.44 26.72 731.58 28.19 733.31C27.93 732.26 25.73 727.76 24.45 726.62C23.25 725.56 21.77 724.58 21.11 724.15C21.25 723.91 23.05 723.04 24.12 723.04C25.19 723.08 27.95 723.68 29.19 723.98Z" fill="#5E8F84" stroke="black" stroke-width="0.5"/>
<path d="M24.4368 694.989C20.6352 729.457 76.6134 884.62 94.1509 956.609L156.815 938.157C139.277 866.167 67.1334 729.864 70.935 695.396C75.8598 650.745 136.052 567.961 201.737 490.032L185.543 454.889C119.859 532.818 29.3616 650.338 24.4368 694.989Z" fill="#D15153" stroke="black"/>
<circle cx="188.5" cy="514.5" r="23.5" fill="#01D9A8"/>
<circle cx="165.5" cy="476.5" r="23.5" fill="#01D9A8"/>
<path d="M189 601C195.563 536.655 190.077 503.855 187.132 497.496C162.888 525.285 152.158 552 143.5 575.5C140 585 136 601 132.15 609.519C123.778 560.644 162.801 497.116 183.36 471.462C130.015 487.796 105.477 519.5 102 524C98.5228 528.5 68.5001 578 65.0001 582C64.1501 541.991 79.5001 513.473 85.0664 504.603C105.35 472.279 143.453 460.612 158.51 454.244C144.541 450.621 126.011 453.959 102.481 457.254C84.0001 462 68.4961 474.457 63.2685 481.411C64.0001 474 73.8029 457.254 77.5129 453.535C97.6905 433.311 132.731 428.85 147.729 429.148C118.352 414.891 61.7453 426.896 65.2757 423.427C75.4153 407.515 107.303 401.46 121.979 400.422C161.491 399.267 186.806 420.49 196.148 438.572C200.281 423.408 209.042 412.684 212.906 409.218C239.606 386.45 263.494 386.146 268.5 385.5C284.896 383.385 309.825 393.68 316.5 400C323.366 406.5 324.5 409 325.866 414.206C323.498 410.585 308.903 409.891 301.902 409.996C299.902 409.979 275.508 409.265 261.864 414.146C234.578 423.908 220.991 437.623 217.608 443.26C220.639 439.786 235.111 434.891 240.5 433.5C256 429.5 278.198 433.29 287.171 436.368C296.144 439.447 301 444.5 304.5 449C308.383 453.992 308.5 456 308.982 458.06C299.668 455.812 279.04 451.298 271.04 451.228C263.041 451.158 249.516 457.675 248.5 459.5C253.472 462.71 264.54 470 273.5 477.951C283.057 486.432 299.526 520.104 301.5 528C290.5 515 279 499 272 492.5C265 486 250.805 478.052 239.305 477.951C248 490.5 259.5 515 261 521.5C261.72 524.618 267 553 262.092 559.654C260 555 255.64 541 255 539C251 526.5 235.292 479.416 221.284 480.294C225.235 485.928 232.068 505.056 234.991 513.915C241.824 532.975 246.435 577.517 246.33 589.517C239.305 580 231.927 549 231 545.5C226.5 528.5 220.447 503.561 213 497.496C213 520.826 203.5 565 201.5 570.5C199.931 574.816 191.5 598 189 601Z" fill="#5E8F84" stroke="black"/>
<path d="M0 1059C0 972.291 70.2913 902 157 902H253C339.709 902 410 972.291 410 1059H0Z" fill="#A37300"/>
<path d="M203.15 700.5V901.5C203.15 905.5 210.15 911.5 218.15 911.5C226.15 911.5 233.15 905.5 233.15 901.5V827C233.15 820 233.15 813.5 239.15 813.5C245.15 813.5 245.15 820 245.15 827V901.5C245.15 905 249.95 911.5 259.15 911.5C268.35 911.5 274.15 905.5 274.15 901.5V696C312.95 696 313.15 688 313.15 681V623.5C313.15 619.5 311.65 611 301.65 611C291.65 611 290.15 619 290.15 623.5V667C290.15 675 282.65 677.5 274.15 677.5H210.15C206.65 677.5 183.993 677.5 181.15 681C174.65 689 176.15 739 176.15 754C176.15 757 178.85 765.5 187.65 765.5C196.45 765.5 199.15 757.5 199.15 754V700.5C198.983 699 199.15 696 201.15 696C203.15 696 203.316 699 203.15 700.5Z" fill="#FFECA7" stroke="black"/>
<path d="M233 902.5H203C203 903.5 206.5 912 218 912C227.2 912 233 905.5 233 902.5Z" fill="#2E2000" stroke="black"/>
<path d="M274 902.5H245C245 904.5 248.383 912 259.5 912C268.393 912 274 905.658 274 902.5Z" fill="#2E2000" stroke="black"/>
<path d="M176.5 706.5H199V700C199 698.833 199.4 696.5 201 696.5C202.6 696.5 203 698.833 203 700V782.5H274V696.5H286.5V675C281 678 274.5 677.5 257.5 677.5C255.167 682.5 248 693 238 693C228 693 220.833 682 218.5 677C207.5 676.5 185.1 677.2 181.5 680C177.9 682.8 176.667 699.167 176.5 706.5Z" fill="white" stroke="black"/>
<path d="M214 677H218.5C220.5 682 228.5 693 237.5 693C247.9 693 255.167 682.333 257.5 677.5H261C258.5 683.5 250.3 696.5 237.5 696.5C224.7 696.5 216.5 683.167 214 677Z" fill="#0CA7E8" stroke="black"/>
<path d="M274 782.5H203V902.5H233V822C233 819.333 234.2 814 239 814C243.8 814 245 819.333 245 822V902.5H274V782.5Z" fill="#0433A2" stroke="black"/>
<circle cx="237.5" cy="648.5" r="32" fill="#FFECA7" stroke="black"/>
<path d="M283.5 696.5V676.5L286.5 675V696.5H283.5Z" fill="#0CA7E8" stroke="black"/>
<path d="M176.5 702.5C176.5 703.5 176.453 705.06 176.5 706.5H199V702.5H176.5Z" fill="#0CA7E8" stroke="black"/>
<path d="M468.153 709.652C467.04 719.74 483.424 765.153 488.557 786.223L506.897 780.823C501.764 759.752 480.649 719.859 481.762 709.771C483.203 696.702 500.821 672.473 520.045 649.664L515.306 639.378C496.081 662.187 469.594 696.583 468.153 709.652Z" fill="#D15153" stroke="black"/>
<circle cx="516.171" cy="656.825" r="6.87805" fill="#01D9A8"/>
<circle cx="509.439" cy="645.703" r="6.87805" fill="#01D9A8"/>
<path d="M516.317 682.143C518.238 663.31 516.632 653.71 515.77 651.849C508.675 659.982 505.534 667.801 503 674.679C501.976 677.46 500.805 682.143 499.678 684.636C497.228 670.331 508.649 651.738 514.666 644.229C499.053 649.01 491.871 658.289 490.854 659.606C489.836 660.923 481.049 675.411 480.024 676.582C479.776 664.872 484.268 656.525 485.897 653.929C491.834 644.468 502.986 641.053 507.393 639.189C503.305 638.129 497.881 639.106 490.994 640.07C485.585 641.46 481.048 645.106 479.518 647.141C479.732 644.972 482.601 640.07 483.687 638.982C489.592 633.063 499.848 631.757 504.238 631.844C495.64 627.672 479.072 631.185 480.105 630.17C483.073 625.513 492.406 623.741 496.701 623.437C508.266 623.099 515.675 629.31 518.409 634.603C519.619 630.164 522.183 627.026 523.314 626.011C531.129 619.348 538.12 619.258 539.585 619.069C544.384 618.45 551.68 621.464 553.634 623.313C555.644 625.216 555.976 625.947 556.376 627.471C555.682 626.411 551.411 626.208 549.362 626.239C548.776 626.234 541.636 626.025 537.643 627.454C529.657 630.311 525.68 634.325 524.69 635.975C525.577 634.958 529.813 633.525 531.39 633.118C535.927 631.947 542.424 633.057 545.05 633.958C547.676 634.859 549.098 636.338 550.122 637.655C551.258 639.116 551.293 639.703 551.434 640.306C548.708 639.648 542.67 638.327 540.329 638.307C537.987 638.286 534.029 640.194 533.732 640.728C535.187 641.668 538.426 643.801 541.049 646.128C543.846 648.61 548.666 658.466 549.244 660.777C546.024 656.972 542.659 652.289 540.61 650.386C538.561 648.484 534.406 646.158 531.041 646.128C533.585 649.801 536.951 656.972 537.39 658.874C537.601 659.787 539.146 668.094 537.71 670.041C537.098 668.679 535.821 664.582 535.634 663.996C534.463 660.338 529.866 646.557 525.766 646.814C526.922 648.463 528.922 654.061 529.778 656.654C531.778 662.233 533.127 675.27 533.096 678.782C531.041 675.996 528.881 666.923 528.61 665.899C527.293 660.923 525.521 653.624 523.341 651.849C523.341 658.677 520.561 671.606 519.976 673.216L519.976 673.216C519.516 674.48 517.049 681.265 516.317 682.143Z" fill="#5E8F84" stroke="black"/>
<path d="M461 817.069C461 791.206 481.966 770.24 507.829 770.24H534.171C560.034 770.24 581 791.206 581 817.069H461Z" fill="#A37300"/>
<path d="M520.458 711.264V770.094C520.458 771.265 522.507 773.021 524.849 773.021C527.19 773.021 529.239 771.265 529.239 770.094V748.289C529.239 746.24 529.239 744.338 530.995 744.338C532.751 744.338 532.751 746.24 532.751 748.289V770.094C532.751 771.118 534.156 773.021 536.849 773.021C539.541 773.021 541.239 771.265 541.239 770.094V709.947C552.595 709.947 552.654 707.606 552.654 705.557V688.728C552.654 687.557 552.215 685.069 549.288 685.069C546.361 685.069 545.922 687.411 545.922 688.728V701.46C545.922 703.801 543.727 704.533 541.239 704.533H522.507C521.483 704.533 514.852 704.533 514.019 705.557C512.117 707.899 512.556 722.533 512.556 726.923C512.556 727.801 513.346 730.289 515.922 730.289C518.497 730.289 519.288 727.947 519.288 726.923V711.264C519.239 710.825 519.288 709.947 519.873 709.947C520.458 709.947 520.507 710.825 520.458 711.264Z" fill="#FFECA7" stroke="black"/>
<path d="M529.195 770.386H520.415C520.415 770.679 521.439 773.167 524.805 773.167C527.497 773.167 529.195 771.264 529.195 770.386Z" fill="#2E2000" stroke="black"/>
<path d="M541.195 770.386H532.708C532.708 770.972 533.698 773.167 536.951 773.167C539.554 773.167 541.195 771.311 541.195 770.386Z" fill="#2E2000" stroke="black"/>
<path d="M512.658 713.021H519.244V711.118C519.244 710.777 519.361 710.094 519.829 710.094C520.297 710.094 520.414 710.777 520.414 711.118V735.265H541.195V710.094H544.853V703.801C543.244 704.679 541.341 704.533 536.366 704.533C535.683 705.996 533.585 709.069 530.658 709.069C527.731 709.069 525.634 705.85 524.951 704.386C521.731 704.24 515.175 704.445 514.122 705.265C513.068 706.084 512.707 710.874 512.658 713.021Z" fill="white" stroke="black" stroke-width="0.5"/>
<path d="M523.634 704.386H524.951C525.537 705.85 527.878 709.069 530.512 709.069C533.556 709.069 535.683 705.947 536.366 704.533H537.39C536.659 706.289 534.259 710.094 530.512 710.094C526.766 710.094 524.366 706.191 523.634 704.386Z" fill="#0CA7E8" stroke="black" stroke-width="0.5"/>
<path d="M541.195 735.264H520.415V770.386H529.195V746.825C529.195 746.045 529.546 744.484 530.951 744.484C532.356 744.484 532.707 746.045 532.707 746.825V770.386H541.195V735.264Z" fill="#0433A2" stroke="black"/>
<circle cx="530.512" cy="696.045" r="9.0122" fill="#FFECA7" stroke="black"/>
<path d="M543.976 710.094V704.24L544.854 703.801V710.094H543.976Z" fill="#0CA7E8" stroke="black" stroke-width="0.5"/>
<path d="M512.659 711.85C512.658 712.143 512.645 712.599 512.659 713.021H519.244V711.85H512.659Z" fill="#0CA7E8" stroke="black" stroke-width="0.5"/>
<path d="M635.265 718.676C634.757 723.282 642.236 744.013 644.58 753.632L652.952 751.166C650.609 741.548 640.97 723.336 641.478 718.731C642.136 712.765 650.178 701.704 658.954 691.292L656.791 686.597C648.014 697.009 635.923 712.711 635.265 718.676Z" fill="#D15153" stroke="black"/>
<circle cx="657.186" cy="694.561" r="3.13984" fill="#01D9A8"/>
<circle cx="654.112" cy="689.484" r="3.13984" fill="#01D9A8"/>
<path d="M657.252 706.119C658.129 697.521 657.396 693.139 657.003 692.289C653.764 696.002 652.33 699.572 651.173 702.711C650.705 703.981 650.171 706.119 649.657 707.257C648.538 700.727 653.752 692.239 656.499 688.811C649.371 690.993 646.093 695.229 645.628 695.831C645.164 696.432 641.152 703.046 640.685 703.58C640.571 698.234 642.622 694.424 643.366 693.239C646.076 688.92 651.167 687.361 653.178 686.51C651.312 686.026 648.836 686.472 645.693 686.913C643.223 687.547 641.152 689.211 640.453 690.14C640.551 689.15 641.861 686.913 642.356 686.416C645.052 683.714 649.734 683.118 651.738 683.157C647.813 681.252 640.25 682.856 640.721 682.393C642.076 680.267 646.337 679.458 648.298 679.319C653.577 679.165 656.959 682.001 658.207 684.417C658.76 682.39 659.93 680.958 660.446 680.494C664.014 677.453 667.206 677.412 667.874 677.326C670.065 677.043 673.396 678.419 674.288 679.263C675.205 680.131 675.357 680.465 675.539 681.161C675.223 680.677 673.273 680.584 672.337 680.598C672.07 680.596 668.811 680.501 666.988 681.153C663.342 682.457 661.527 684.29 661.075 685.043C661.48 684.579 663.413 683.925 664.133 683.739C666.204 683.204 669.17 683.711 670.369 684.122C671.568 684.533 672.217 685.209 672.684 685.81C673.203 686.477 673.219 686.745 673.283 687.02C672.039 686.72 669.283 686.117 668.214 686.107C667.145 686.098 665.338 686.969 665.202 687.213C665.866 687.642 667.345 688.616 668.542 689.678C669.819 690.811 672.02 695.31 672.283 696.365C670.814 694.628 669.277 692.49 668.342 691.622C667.407 690.753 665.51 689.691 663.974 689.678C665.135 691.355 666.672 694.628 666.872 695.497C666.968 695.913 667.674 699.705 667.018 700.594C666.739 699.972 666.156 698.102 666.071 697.835C665.536 696.165 663.437 689.874 661.566 689.991C662.094 690.744 663.007 693.299 663.397 694.483C664.31 697.03 664.926 702.981 664.912 704.584C663.974 703.313 662.988 699.171 662.864 698.703C662.263 696.432 661.454 693.1 660.459 692.289C660.459 695.406 659.19 701.309 658.922 702.043L658.922 702.044C658.713 702.62 657.586 705.718 657.252 706.119Z" fill="#5E8F84" stroke="black"/>
<path d="M632 767.713C632 755.906 641.571 746.335 653.378 746.335H665.403C677.209 746.335 686.78 755.906 686.78 767.713H632Z" fill="#A37300"/>
<path d="M659.143 719.413V746.268C659.143 746.803 660.078 747.605 661.147 747.605C662.216 747.605 663.151 746.803 663.151 746.268V736.314C663.151 735.379 663.151 734.511 663.953 734.511C664.755 734.511 664.755 735.379 664.755 736.314V746.268C664.755 746.736 665.396 747.605 666.625 747.605C667.854 747.605 668.629 746.803 668.629 746.268V718.812C673.814 718.812 673.84 717.743 673.84 716.807V709.125C673.84 708.59 673.64 707.455 672.304 707.455C670.968 707.455 670.767 708.524 670.767 709.125V714.937C670.767 716.006 669.765 716.34 668.629 716.34H660.078C659.611 716.34 656.584 716.34 656.204 716.807C655.335 717.876 655.536 724.557 655.536 726.561C655.536 726.962 655.896 728.097 657.072 728.097C658.248 728.097 658.609 727.029 658.609 726.561V719.413C658.586 719.212 658.609 718.812 658.876 718.812C659.143 718.812 659.165 719.212 659.143 719.413Z" fill="#FFECA7" stroke="black"/>
<path d="M663.131 746.402H659.123C659.123 746.536 659.591 747.671 661.127 747.671C662.356 747.671 663.131 746.803 663.131 746.402Z" fill="#2E2000" stroke="black"/>
<path d="M668.609 746.402H664.734C664.734 746.669 665.186 747.671 666.672 747.671C667.86 747.671 668.609 746.824 668.609 746.402Z" fill="#2E2000" stroke="black"/>
<path d="M655.582 720.214H658.588V719.346C658.588 719.19 658.642 718.878 658.855 718.878C659.069 718.878 659.123 719.19 659.123 719.346V730.369H668.609V718.878H670.279V716.006C669.544 716.407 668.676 716.34 666.404 716.34C666.093 717.008 665.135 718.411 663.799 718.411C662.463 718.411 661.505 716.941 661.194 716.273C659.724 716.206 656.731 716.3 656.25 716.674C655.769 717.048 655.604 719.235 655.582 720.214Z" fill="white" stroke="black" stroke-width="0.5"/>
<path d="M660.593 716.273H661.194C661.461 716.941 662.53 718.411 663.733 718.411C665.122 718.411 666.093 716.985 666.405 716.34H666.872C666.538 717.141 665.443 718.878 663.733 718.878C662.022 718.878 660.927 717.097 660.593 716.273Z" fill="#0CA7E8" stroke="black" stroke-width="0.5"/>
<path d="M668.609 730.369H659.123V746.402H663.131V735.646C663.131 735.29 663.292 734.578 663.933 734.578C664.574 734.578 664.735 735.29 664.735 735.646V746.402H668.609V730.369Z" fill="#0433A2" stroke="black"/>
<circle cx="663.732" cy="712.465" r="3.84233" fill="#FFECA7" stroke="black"/>
<path d="M669.878 718.878V716.206L670.279 716.006V718.878H669.878Z" fill="#0CA7E8" stroke="black" stroke-width="0.5"/>
<path d="M655.582 719.68C655.582 719.814 655.576 720.022 655.582 720.214H658.589V719.68H655.582Z" fill="#0CA7E8" stroke="black" stroke-width="0.5"/>
<path d="M1875 518H1862V945H1875V518Z" fill="black"/>
<path d="M1611.5 772L1862.5 521V772H1611.5Z" fill="#CACACA" stroke="black"/>
<path d="M1746 756.5V957.5C1746 961.5 1739 967.5 1731 967.5C1723 967.5 1716 961.5 1716 957.5V883C1716 876 1716 869.5 1710 869.5C1704 869.5 1704 876 1704 883V957.5C1704 961 1699.2 967.5 1690 967.5C1680.8 967.5 1675 961.5 1675 957.5V752C1636.2 752 1636 744 1636 737V679.5C1636 675.5 1637.5 667 1647.5 667C1657.5 667 1659 675 1659 679.5V723C1659 731 1666.5 733.5 1675 733.5H1739C1742.5 733.5 1765.16 733.5 1768 737C1774.5 745 1773 795 1773 810C1773 813 1770.3 821.5 1761.5 821.5C1752.7 821.5 1750 813.5 1750 810V756.5C1750.17 755 1750 752 1748 752C1746 752 1745.83 755 1746 756.5Z" fill="#FFECA7" stroke="black"/>
<path d="M1716.15 958.5H1746.15C1746.15 959.5 1742.65 968 1731.15 968C1721.95 968 1716.15 961.5 1716.15 958.5Z" fill="#2E2000" stroke="black"/>
<path d="M1675.15 958.5H1704.15C1704.15 960.5 1700.77 968 1689.65 968C1680.76 968 1675.15 961.66 1675.15 958.5Z" fill="#2E2000" stroke="black"/>
<path d="M1768 736C1771.6 738.8 1772.83 755.17 1773 762.5L1773.5 785.5H1749.5V784.5V762.5V756C1749.5 754.83 1749.5 752.5 1748 752.5C1746.5 752.5 1746.5 754.83 1746.5 756V838.5H1674.5V752.5C1670 752.5 1657 751.5 1650 750.5C1645.33 749.5 1636 746.2 1636 741V728.5V702H1659C1659 707 1658.5 726.64 1660.5 728.5C1661.22 729.42 1662.06 730.19 1663 730.83C1670.5 734.5 1682 732.5 1692 733.5H1711C1721 733.5 1723.5 733 1731 733C1742 732.5 1764.4 733.2 1768 736Z" fill="white" stroke="black"/>
<path d="M1773 762.5C1772.83 755.17 1771.6 738.8 1768 736C1764.4 733.2 1742 732.5 1731 733C1729.5 738 1714 779.5 1711.5 787.5C1709 779.5 1693.5 738.5 1692 733.5C1682 732.5 1670.5 734.5 1663 730.83C1662.06 730.19 1661.22 729.42 1660.5 728.5C1658.5 726.64 1659 707 1659 702H1636V728.5V741C1636 746.2 1645.33 749.5 1650 750.5C1657 751.5 1670 752.5 1674.5 752.5V838.5H1711.5H1746.5V756C1746.5 754.83 1746.5 752.5 1748 752.5C1749.5 752.5 1749.5 754.83 1749.5 756V762.5V784.5V785.5H1773.5L1773 762.5Z" fill="#4F4F4F"/>
<path d="M1711.5 787.5V838.5M1711.5 787.5C1714 779.5 1729.5 738 1731 733C1742 732.5 1764.4 733.2 1768 736C1771.6 738.8 1772.83 755.17 1773 762.5L1773.5 785.5H1749.5V784.5V762.5V756C1749.5 754.83 1749.5 752.5 1748 752.5C1746.5 752.5 1746.5 754.83 1746.5 756V838.5H1711.5V787.5ZM1711.5 787.5C1709 779.5 1693.5 738.5 1692 733.5C1682 732.5 1670.5 734.5 1663 730.83C1662.06 730.19 1661.22 729.42 1660.5 728.5C1658.5 726.64 1659 707 1659 702H1636V728.5C1636 730.5 1636 735.8 1636 741C1636 746.2 1645.33 749.5 1650 750.5C1657 751.5 1670 752.5 1674.5 752.5V838.5H1711.5V787.5Z" stroke="black"/>
<path d="M1674.15 838.5H1746.15V958.5H1716.15V878C1716.15 875.33 1714.95 870 1710.15 870C1705.35 870 1704.15 875.33 1704.15 878V958.5H1674.15V838.5Z" fill="#5C3C0B" stroke="black"/>
<path d="M1704.5 739.5L1708 733H1715.5L1719 739.5L1714.5 746L1725 776.5L1711.5 790L1698 776.5L1709 746L1704.5 739.5Z" fill="#2B64F7" stroke="black"/>
<path d="M1711.65 736.5C1729.32 736.5 1743.65 722.173 1743.65 704.5C1743.65 686.827 1729.32 672.5 1711.65 672.5C1693.98 672.5 1679.65 686.827 1679.65 704.5C1679.65 722.173 1693.98 736.5 1711.65 736.5Z" fill="#FFECA7" stroke="black"/>
<path d="M1698.5 698.5H1714.5" stroke="black"/>
<path d="M1698.5 691.5H1684.5V705.5H1698.5V691.5Z" fill="white" stroke="black"/>
<path d="M1728.5 691.5H1714.5V705.5H1728.5V691.5Z" fill="white" stroke="black"/>
<path d="M1714.5 797C1715.88 797 1717 795.881 1717 794.5C1717 793.119 1715.88 792 1714.5 792C1713.12 792 1712 793.119 1712 794.5C1712 795.881 1713.12 797 1714.5 797Z" fill="black"/>
<path d="M1714.5 812C1715.88 812 1717 810.881 1717 809.5C1717 808.119 1715.88 807 1714.5 807C1713.12 807 1712 808.119 1712 809.5C1712 810.881 1713.12 812 1714.5 812Z" fill="black"/>
<path d="M1714.5 827C1715.88 827 1717 825.881 1717 824.5C1717 823.119 1715.88 822 1714.5 822C1713.12 822 1712 823.119 1712 824.5C1712 825.881 1713.12 827 1714.5 827Z" fill="black"/>
<path d="M1920 885H1455C1455 951.02 1478.27 1011.6 1517.05 1059H1920V885Z" fill="#555454"/>
<path d="M1866 545V417H1871V545H1866Z" fill="black"/>
<path d="M1867 417H1758V489H1867V417Z" fill="white" fill-opacity="0.9"/>
<path d="M1796.12 465.59C1797.11 462.52 1799.5 461.75 1800.57 461.75C1800.88 464.04 1804.1 469.06 1808.19 471.16C1811.4 472.65 1813.4 472.32 1814 471.96C1814.09 472.27 1814.24 473.22 1814.19 474.56C1814.13 476.23 1812.21 478.15 1808.93 477.78C1806.3 477.48 1802.39 474.77 1800.76 473.45C1799.34 472.15 1796.68 469.49 1796.12 465.59Z" fill="#0CA7E8"/>
<path fill-rule="evenodd" clip-rule="evenodd" d="M1798.82 441.47C1799.91 445.6 1801.09 455.33 1800.84 460.48C1804.88 470.32 1814.16 471.63 1814.99 471.74H1815.01C1817.18 472.05 1826.28 472.79 1832.65 463.88C1836.98 455.4 1829.5 455.65 1828.75 455.71C1828.2 455.9 1826.92 456.61 1826.28 458C1825.77 458.73 1825.43 459.24 1825.17 459.64C1824.64 460.45 1824.45 460.74 1823.86 461.28C1823 462.08 1820.65 463.88 1817.12 461.28C1814.33 458.62 1814.89 455.46 1815.08 454.72C1815.51 453.3 1817.18 450.41 1820.4 450.26C1823.62 450.11 1825.82 452.88 1826.53 454.28C1827.1 454.98 1828.94 456.05 1831.66 454.71C1834.38 453.37 1833.04 449.03 1832.03 447.03C1831.48 446.07 1830.03 444.05 1828.31 443.11C1826.07 442.43 1822.82 441.95 1819.58 442.21C1815.45 442.55 1811.41 444.08 1809.46 447.84L1809.01 447.61C1811.08 443.62 1815.33 442.05 1819.53 441.71C1822.58 441.46 1825.64 441.86 1827.9 442.47C1828.01 441.48 1827.74 439.4 1825.25 437.9C1818.23 436.2 1812.6 438.27 1810.04 440.25C1808.69 441.29 1807.64 442.61 1806.94 443.68C1806.58 444.21 1806.32 444.68 1806.14 445.01C1806.05 445.18 1805.98 445.31 1805.93 445.4C1805.91 445.45 1805.9 445.48 1805.88 445.5L1805.87 445.53V445.54L1805.64 445.44C1805.41 445.34 1805.41 445.34 1805.41 445.34H1805.42V445.33L1805.43 445.3C1805.45 445.27 1805.46 445.24 1805.49 445.19C1805.53 445.09 1805.6 444.96 1805.7 444.79C1805.88 444.45 1806.16 443.97 1806.52 443.42C1807.25 442.33 1808.32 440.96 1809.73 439.87C1812.2 437.96 1817.33 436.02 1823.74 437.1C1818.6 433.96 1810.52 435.35 1806.5 439.21L1806.51 439.22C1805.9 439.89 1805.28 440.87 1804.77 441.88C1804.26 442.88 1803.88 443.88 1803.75 444.55L1803.25 444.45C1803.4 443.71 1803.81 442.67 1804.33 441.65C1804.44 441.43 1804.56 441.2 1804.68 440.99V435.2C1804.34 431.94 1804.11 430.86 1802.7 429.68C1801.2 428.42 1798.44 429.05 1797.87 430.56C1797.46 431.67 1797.49 432.19 1797.53 433.03C1797.54 433.33 1797.56 433.66 1797.56 434.08C1797.56 435.12 1798.32 439.6 1798.82 441.47Z" fill="#0CA7E8"/>
<path d="M1791.94 436.56C1789.05 443.21 1785 459.16 1791.94 469.75" stroke="#0CA7E8" stroke-opacity="0.5" stroke-width="0.5"/>
<path d="M1834.06 436.56C1836.63 443.12 1840.23 458.87 1834.06 469.33" stroke="#0CA7E8" stroke-opacity="0.5" stroke-width="0.5"/>
<path d="M1840.87 442.51C1842.48 446.52 1844.73 456.13 1840.87 462.51" stroke="#0CA7E8" stroke-opacity="0.5" stroke-width="0.5"/>
<path d="M1785.13 442.94C1783.52 447.03 1781.27 456.85 1785.13 463.37" stroke="#0CA7E8" stroke-opacity="0.5" stroke-width="0.5"/>
<path d="M1455.79 906.5H1920" stroke="#828282" stroke-width="5"/>
<path d="M1467 940C1469.76 940 1472 937.761 1472 935C1472 932.239 1469.76 930 1467 930C1464.24 930 1462 932.239 1462 935C1462 937.761 1464.24 940 1467 940Z" fill="#C4C4C4"/>
<path d="M1472 959C1474.76 959 1477 956.761 1477 954C1477 951.239 1474.76 949 1472 949C1469.24 949 1467 951.239 1467 954C1467 956.761 1469.24 959 1472 959Z" fill="#C4C4C4"/>
<path d="M1477 978C1479.76 978 1482 975.761 1482 973C1482 970.239 1479.76 968 1477 968C1474.24 968 1472 970.239 1472 973C1472 975.761 1474.24 978 1477 978Z" fill="#C4C4C4"/>
<path d="M1486 997C1488.76 997 1491 994.761 1491 992C1491 989.239 1488.76 987 1486 987C1483.24 987 1481 989.239 1481 992C1481 994.761 1483.24 997 1486 997Z" fill="#C4C4C4"/>
<path d="M1496 1016C1498.76 1016 1501 1013.76 1501 1011C1501 1008.24 1498.76 1006 1496 1006C1493.24 1006 1491 1008.24 1491 1011C1491 1013.76 1493.24 1016 1496 1016Z" fill="#C4C4C4"/>
<path d="M1506 1035C1508.76 1035 1511 1032.76 1511 1030C1511 1027.24 1508.76 1025 1506 1025C1503.24 1025 1501 1027.24 1501 1030C1501 1032.76 1503.24 1035 1506 1035Z" fill="#C4C4C4"/>
<path d="M1875 521V772H1919.84V565.84L1875 521Z" fill="#CACACA" stroke="black"/>
<defs>
<linearGradient id="paint0_linear" x1="960" y1="0" x2="960" y2="736.397" gradientUnits="userSpaceOnUse">
<stop stop-color="#001D62"/>
<stop offset="1" stop-color="#0333A2"/>
</linearGradient>
</defs>
</svg>
