<svg width="48" height="51" viewBox="0 0 48 51" fill="none" xmlns="http://www.w3.org/2000/svg">
<path fill-rule="evenodd" clip-rule="evenodd" d="M16.8606 25.0901C16.8606 20.9765 20.0645 17.6286 23.9992 17.6286C27.9355 17.6286 31.1378 20.9765 31.1378 25.0901C31.1378 29.2054 27.9355 32.5549 23.9992 32.5549C20.0645 32.5549 16.8606 29.2054 16.8606 25.0901ZM5.22325 12.6586C5.22325 8.68999 8.31215 5.46068 12.1082 5.46068H35.8918C39.6878 5.46068 42.7768 8.68999 42.7768 12.6586V37.5233C42.7768 41.4919 39.6878 44.7212 35.8918 44.7212H12.1082C8.31215 44.7212 5.22325 41.4919 5.22325 37.5233V12.6586ZM11.6373 25.0901C11.6373 32.2173 17.1835 38.0155 23.9992 38.0155C30.8165 38.0155 36.3626 32.2173 36.3626 25.0901C36.3626 17.9646 30.8165 12.1663 23.9992 12.1663C17.1835 12.1663 11.6373 17.9646 11.6373 25.0901ZM33.8345 11.781C33.8345 13.4672 35.1467 14.839 36.7596 14.839C38.3726 14.839 39.6847 13.4672 39.6847 11.781C39.6847 10.0947 38.3726 8.72292 36.7596 8.72292C35.1467 8.72292 33.8345 10.0947 33.8345 11.781ZM35.8918 50.1819C42.5688 50.1819 48 44.5038 48 37.5233V12.6586C48 5.67804 42.5688 0 35.8918 0H12.1082C5.43116 0 0 5.67804 0 12.6586V37.5233C0 44.5038 5.43116 50.1819 12.1082 50.1819H35.8918Z" fill="white"/>
</svg>
