<svg width="25" height="25" viewBox="0 0 25 25" fill="none" xmlns="http://www.w3.org/2000/svg">
<path fill-rule="evenodd" clip-rule="evenodd" d="M8.78156 12.4996C8.78156 10.4503 10.4503 8.78237 12.4996 8.78237C14.5497 8.78237 16.2176 10.4503 16.2176 12.4996C16.2176 14.5497 14.5497 16.2184 12.4996 16.2184C10.4503 16.2184 8.78156 14.5497 8.78156 12.4996ZM2.72044 6.30638C2.72044 4.32924 4.32924 2.72044 6.30638 2.72044H18.6936C20.6707 2.72044 22.2796 4.32924 22.2796 6.30638V18.6936C22.2796 20.6707 20.6707 22.2796 18.6936 22.2796H6.30638C4.32924 22.2796 2.72044 20.6707 2.72044 18.6936V6.30638ZM6.06111 12.4996C6.06111 16.0502 8.94975 18.9389 12.4996 18.9389C16.0502 18.9389 18.9389 16.0502 18.9389 12.4996C18.9389 8.94975 16.0502 6.06111 12.4996 6.06111C8.94975 6.06111 6.06111 8.94975 6.06111 12.4996ZM17.6221 5.86913C17.6221 6.70919 18.3056 7.39263 19.1456 7.39263C19.9857 7.39263 20.6691 6.70919 20.6691 5.86913C20.6691 5.02904 19.9857 4.34565 19.1456 4.34565C18.3056 4.34565 17.6221 5.02904 17.6221 5.86913ZM18.6936 25C22.1712 25 25 22.1712 25 18.6936V6.30638C25 2.82873 22.1712 0 18.6936 0H6.30638C2.82873 0 0 2.82873 0 6.30638V18.6936C0 22.1712 2.82873 25 6.30638 25H18.6936Z" fill="white"/>
</svg>
