<svg width="40" height="40" viewBox="0 0 40 40" fill="none" xmlns="http://www.w3.org/2000/svg">
<path fill-rule="evenodd" clip-rule="evenodd" d="M14.0505 19.9993C14.0505 16.7204 16.7204 14.0518 19.9993 14.0518C23.2796 14.0518 25.9482 16.7204 25.9482 19.9993C25.9482 23.2796 23.2796 25.9495 19.9993 25.9495C16.7204 25.9495 14.0505 23.2796 14.0505 19.9993ZM4.35271 10.0902C4.35271 6.92679 6.92679 4.35271 10.0902 4.35271H29.9098C33.0732 4.35271 35.6473 6.92679 35.6473 10.0902V29.9098C35.6473 33.0732 33.0732 35.6473 29.9098 35.6473H10.0902C6.92679 35.6473 4.35271 33.0732 4.35271 29.9098V10.0902ZM9.69777 19.9993C9.69777 25.6804 14.3196 30.3022 19.9993 30.3022C25.6804 30.3022 30.3022 25.6804 30.3022 19.9993C30.3022 14.3196 25.6804 9.69777 19.9993 9.69777C14.3196 9.69777 9.69777 14.3196 9.69777 19.9993ZM28.1954 9.39061C28.1954 10.7347 29.2889 11.8282 30.633 11.8282C31.9772 11.8282 33.0706 10.7347 33.0706 9.39061C33.0706 8.04647 31.9772 6.95304 30.633 6.95304C29.2889 6.95304 28.1954 8.04647 28.1954 9.39061ZM29.9098 40C35.474 40 40 35.474 40 29.9098V10.0902C40 4.52597 35.474 0 29.9098 0H10.0902C4.52597 0 0 4.52597 0 10.0902V29.9098C0 35.474 4.52597 40 10.0902 40H29.9098Z" fill="white"/>
<path fill-rule="evenodd" clip-rule="evenodd" d="M19.9993 14.0518C16.7204 14.0518 14.0505 16.7204 14.0505 19.9993C14.0505 23.2796 16.7204 25.9495 19.9993 25.9495C23.2796 25.9495 25.9482 23.2796 25.9482 19.9993C25.9482 16.7204 23.2796 14.0518 19.9993 14.0518ZM10.0902 4.35271C6.92679 4.35271 4.35271 6.92679 4.35271 10.0902V29.9098C4.35271 33.0732 6.92679 35.6473 10.0902 35.6473H29.9098C33.0732 35.6473 35.6473 33.0732 35.6473 29.9098V10.0902C35.6473 6.92679 33.0732 4.35271 29.9098 4.35271H10.0902ZM19.9993 30.3022C14.3196 30.3022 9.69777 25.6804 9.69777 19.9993C9.69777 14.3196 14.3196 9.69777 19.9993 9.69777C25.6804 9.69777 30.3022 14.3196 30.3022 19.9993C30.3022 25.6804 25.6804 30.3022 19.9993 30.3022ZM30.633 11.8282C29.2889 11.8282 28.1954 10.7347 28.1954 9.39061C28.1954 8.04647 29.2889 6.95304 30.633 6.95304C31.9772 6.95304 33.0706 8.04647 33.0706 9.39061C33.0706 10.7347 31.9772 11.8282 30.633 11.8282ZM35.2091 38.4937C33.6681 39.4485 31.8522 40 29.9098 40H29.9C31.8476 40 33.6665 39.4487 35.2091 38.4937ZM40 29.9V29.9098C40 33.5316 38.0824 36.7135 35.2091 38.4937C38.0845 36.7135 40 33.5305 40 29.9ZM40 10.1V10.0902C40 8.14239 39.4454 6.32177 38.4857 4.77802C36.704 1.91184 33.5262 0 29.9098 0H29.9C33.525 0 36.704 1.90974 38.4857 4.77802C39.4456 6.32336 40 8.14694 40 10.1ZM10.1 40C6.46954 40 3.28646 38.0845 1.50627 35.2091C0.551261 33.6665 0 31.8476 0 29.9V29.9098C0 31.8522 0.551545 33.6681 1.50627 35.2091C3.28645 38.0824 6.46839 40 10.0902 40H10.1ZM0 10.1C0 6.47498 1.90974 3.29601 4.77801 1.51429C6.32336 0.554351 8.14694 0 10.1 0H10.0902C8.14239 0 6.32177 0.554636 4.77801 1.51429C1.91184 3.296 0 6.47383 0 10.0902V10.1Z" fill="#0477CB"/>
</svg>
