<svg width="577" height="161" viewBox="0 0 577 161" fill="none" xmlns="http://www.w3.org/2000/svg">
<path d="M44.25 120.632C47.5143 110.507 55.4031 107.975 58.9395 107.975C59.9596 115.528 70.5686 132.063 84.034 139.004C94.643 143.903 101.24 142.814 103.212 141.658C103.484 142.678 103.987 145.822 103.824 150.231C103.62 155.743 97.2953 162.071 86.4822 160.846C77.8317 159.866 64.9241 150.912 59.5515 146.557C54.8591 142.27 46.0862 133.492 44.25 120.632Z" fill="white"/>
<path fill-rule="evenodd" clip-rule="evenodd" d="M53.1448 41.1179C56.7491 54.7269 60.646 86.8177 59.8299 103.802C73.1273 136.258 103.735 140.559 106.461 140.942L106.551 140.954C113.691 141.975 143.682 144.425 164.696 115.029C178.978 87.0627 154.291 87.8792 151.843 88.0833C150.007 88.6957 145.804 91.0637 143.682 95.6364C142.017 98.0364 140.895 99.7397 140.04 101.038L140.04 101.038C138.277 103.715 137.649 104.669 135.726 106.455C132.869 109.109 125.116 115.029 113.487 106.455C104.306 97.6777 106.143 87.2668 106.755 84.8172C108.183 80.1221 113.691 70.6094 124.3 70.1195C134.909 69.6295 142.186 78.7612 144.498 83.3882C146.403 85.7018 152.455 89.2265 161.432 84.8172C170.409 80.4079 165.989 66.1048 162.656 59.5044C160.684 56.0341 155.148 48.4403 148.783 45.8274L148.791 45.7993C141.767 42.9399 130.284 40.9417 118.854 42.3908C106.581 43.9465 94.4603 49.4602 87.9396 62.0405L87.0518 61.5804C93.775 48.6093 106.258 42.9794 118.728 41.3987C130.227 39.941 141.791 41.9129 149 44.8051C149.456 41.5487 148.715 33.9895 139.308 28.8454C115.574 22.63 98.6473 30.1862 89.9472 36.9089C85.4536 40.3813 81.9896 44.7655 79.6456 48.2927C78.4749 50.0543 77.5866 51.5975 76.9917 52.699C76.6943 53.2496 76.4704 53.6895 76.3212 53.9907C76.2467 54.1413 76.1908 54.2573 76.1539 54.335C76.1354 54.3739 76.1216 54.4032 76.1126 54.4225L76.1027 54.444L76.1004 54.449L76.0999 54.45L76.0998 54.4502L75.6452 54.2421C75.1905 54.0341 75.1905 54.034 75.1906 54.0338L75.1909 54.0332L75.1917 54.0314L75.1948 54.0247L75.2063 54C75.2164 53.9784 75.2312 53.9468 75.2507 53.9056C75.2899 53.8233 75.348 53.7026 75.425 53.5471C75.579 53.236 75.8084 52.7856 76.1118 52.2237C76.7187 51.1002 77.6224 49.5303 78.8127 47.7392C81.1908 44.1608 84.725 39.6806 89.3358 36.1177C97.765 29.6041 113.65 22.3985 135.721 26.9764C117.748 15.6158 88.3359 21.4948 76.1111 36.2244C74.8736 38.0173 73.7085 40.0688 72.7011 42.1356C71.1221 45.3751 69.9517 48.6086 69.4965 50.8847L68.5159 50.6886C68.9938 48.2993 70.2016 44.9812 71.8022 41.6974C72.0204 41.2497 72.2464 40.8018 72.4792 40.3563V20.426C71.3535 9.66578 70.5967 6.10657 65.9505 2.21667C61.0076 -1.9217 51.9029 0.128858 50.0373 5.1135C48.6675 8.77342 48.7569 10.5018 48.8987 13.2438C48.9493 14.2225 49.0066 15.3302 49.0066 16.7011C49.0066 20.1714 51.5126 34.9554 53.1448 41.1179Z" fill="white"/>
<path d="M30.4653 24.915C20.9371 46.838 7.59757 99.4162 30.4653 134.344" stroke="white" stroke-opacity="0.5"/>
<path d="M169.355 24.915C177.825 46.557 189.682 98.4611 169.355 132.942" stroke="white" stroke-opacity="0.5"/>
<path d="M191.8 44.5554C197.094 57.7654 204.505 89.4472 191.8 110.494" stroke="white" stroke-opacity="0.5"/>
<path d="M8.01471 45.9584C2.72125 59.4495 -4.68961 91.8053 8.01471 113.3" stroke="white" stroke-opacity="0.5"/>
<path d="M229.68 59.045H216V48.5H254.19V59.045H240.13V115H229.68V59.045ZM292.336 97.52C292.336 102.84 290.88 107.242 287.966 110.725C285.053 114.208 280.651 115.95 274.761 115.95C268.871 115.95 264.406 114.208 261.366 110.725C258.39 107.178 256.901 102.777 256.901 97.52V84.98C256.901 78.9633 258.421 74.3717 261.461 71.205C264.565 67.975 268.998 66.36 274.761 66.36C280.271 66.36 284.578 68.0383 287.681 71.395C290.785 74.6883 292.336 79.2167 292.336 84.98V97.52ZM281.981 84.98C281.981 81.6233 281.285 79.4383 279.891 78.425C278.498 77.4117 276.788 76.905 274.761 76.905C269.821 76.905 267.351 79.5967 267.351 84.98V98.47C267.351 101.003 268.048 102.84 269.441 103.98C270.835 105.12 272.608 105.69 274.761 105.69C276.851 105.69 278.561 105.088 279.891 103.885C281.285 102.682 281.981 100.877 281.981 98.47V84.98ZM303.473 48.5H313.923V105.405H337.768V115H303.473V48.5ZM349.589 58.76L343.699 58.57V48.5H360.039V115H349.589V58.76ZM375.095 48.5H394.475C399.731 48.5 404.101 49.9567 407.585 52.87C411.068 55.7833 412.81 59.9317 412.81 65.315C412.81 67.8483 412.398 70.255 411.575 72.535C410.751 74.815 409.073 76.81 406.54 78.52L406.445 78.71V78.805C409.231 80.0717 411.543 82.0983 413.38 84.885C415.28 87.6717 416.23 91.2183 416.23 95.525C416.23 98.8183 415.565 101.953 414.235 104.93C412.905 107.843 410.72 110.25 407.68 112.15C404.64 114.05 400.713 115 395.9 115H375.095V48.5ZM390.105 75.765C393.715 75.765 396.375 75.1 398.085 73.77C399.795 72.44 400.65 70.16 400.65 66.93C400.65 63.9533 399.858 61.895 398.275 60.755C396.691 59.5517 394.285 58.95 391.055 58.95H385.545V75.765H390.105ZM391.34 105.405C394.253 105.405 396.596 105.183 398.37 104.74C400.206 104.233 401.631 103.252 402.645 101.795C403.721 100.338 404.26 98.185 404.26 95.335C404.26 91.725 403.151 89.255 400.935 87.925C398.718 86.5317 395.805 85.835 392.195 85.835H385.545V105.405H391.34ZM451.646 96.475H437.776V115H427.326V48.5H449.841C454.021 48.5 457.504 49.545 460.291 51.635C463.078 53.6617 465.136 56.385 466.466 59.805C467.859 63.225 468.556 66.9933 468.556 71.11C468.556 74.2133 468.429 76.905 468.176 79.185C467.923 81.465 467.258 83.84 466.181 86.31C465.168 88.78 463.521 90.9967 461.241 92.96L468.651 115H458.011L451.646 96.475ZM447.371 86.5C450.474 86.5 452.754 85.7083 454.211 84.125C455.731 82.4783 456.649 80.61 456.966 78.52C457.346 76.43 457.536 73.96 457.536 71.11C457.536 67.7533 457.061 65.22 456.111 63.51C455.161 61.7367 453.831 60.565 452.121 59.995C450.411 59.3617 448.194 59.045 445.471 59.045H437.776V86.5H447.371ZM506.314 97.615H491.019L487.314 115H475.534L491.114 48.5H505.839L522.654 115H510.209L506.314 97.615ZM493.489 86.5H503.844L498.429 65.98L493.489 86.5ZM538.362 96.475C538.678 99.2617 539.818 101.51 541.782 103.22C543.745 104.93 546.31 105.785 549.477 105.785C552.137 105.785 554.29 105.342 555.937 104.455C557.647 103.568 558.882 102.492 559.642 101.225C560.402 99.9583 560.782 98.7233 560.782 97.52C560.782 94.7333 560.085 92.4217 558.692 90.585C557.362 88.685 555.683 87.1967 553.657 86.12C551.693 84.98 549.002 83.6817 545.582 82.225C541.845 80.6417 538.868 79.2167 536.652 77.95C534.498 76.62 532.63 74.8467 531.047 72.63C529.527 70.35 528.767 67.4683 528.767 63.985C528.767 61.1983 529.558 58.57 531.142 56.1C532.725 53.5667 535.132 51.5083 538.362 49.925C541.592 48.3417 545.55 47.55 550.237 47.55C553.34 47.55 555.905 47.7717 557.932 48.215C559.958 48.6583 562.017 49.3867 564.107 50.4L560.782 60.28C558.502 59.52 556.633 58.9817 555.177 58.665C553.783 58.3483 552.168 58.19 550.332 58.19C546.722 58.19 544.062 58.8233 542.352 60.09C540.642 61.3567 539.882 62.9717 540.072 64.935C540.262 66.5183 541.212 67.88 542.922 69.02C544.695 70.16 547.418 71.5533 551.092 73.2C555.398 75.1 558.977 76.905 561.827 78.615C564.677 80.325 567.115 82.6683 569.142 85.645C571.232 88.6217 572.277 92.2633 572.277 96.57C572.277 102.207 570.408 106.862 566.672 110.535C562.935 114.208 557.235 116.045 549.572 116.045C544.885 116.045 540.863 115.19 537.507 113.48C534.213 111.707 531.68 109.458 529.907 106.735C528.197 103.948 527.278 101.067 527.152 98.09L538.362 96.475Z" fill="white"/>
</svg>
