<svg width="235" height="221" viewBox="0 0 235 221" fill="none" xmlns="http://www.w3.org/2000/svg">
<path d="M21.0271 84.3537C19.3972 82.4083 9.05903 66.6962 1.39042 55.382C0.4247 53.8603 -1.18449 48.6863 1.39073 46.3686C3.96598 44.0509 8.57969 47.1197 9.4381 48.3001C14.6959 54.2017 24.0523 65.168 27.1427 69.5459C31.0055 75.0184 35.5122 78.8812 38.0875 77.2717C40.1477 75.9841 38.0875 69.0094 36.7999 65.683L18.3487 25.7526C17.1684 23.6065 16.8725 20.6021 20.2204 18.0268C23.5682 15.4516 26.7658 16.9538 27.9461 18.0268C29.2936 20.2802 41.5825 44.3254 50.32 61.1763C50.8614 62.1281 52.7928 66.6348 54.8267 65.683C56.8606 64.7313 56.3338 61.1903 56.3338 60.2106C55.0462 41.9692 52.2514 7.61096 52.2514 5.80828C52.2514 3.55493 53.861 0.335868 58.0458 0.0139603C61.3936 -0.243566 63.9474 3.12573 64.8058 4.84257C66.8446 20.5087 71.5659 53.6437 74.1411 60.8544C76.7164 68.0652 79.2916 63.4297 80.2574 60.2106C83.1545 44.6518 89.142 12.8902 89.9146 10.315C90.8803 7.09591 93.1337 5.48638 96.6746 5.80828C99.5074 6.06581 101.289 8.92006 101.825 10.315L98.6061 75.0184L79.2916 82.1003C73.1754 81.0273 60.5566 81.9716 59.0115 94.3328C57.4663 106.694 72.317 112.574 79.9355 113.969H100.216L72.5316 154.851H52.5733C36.4781 149.379 31.3274 116.223 31.3274 113.969C31.3274 100.311 22.657 86.2991 21.0271 84.3537Z" fill="#0CA7E8"/>
<path d="M77.349 103.211C70.9109 101.923 69.0868 97.7384 68.9795 95.8069C67.9494 91.944 76.7052 91.6221 81.2119 91.944C97.3073 91.3002 137.546 59.1095 159.114 67.801C170.702 79.6472 181.54 85.3986 185.51 86.7935C187.227 88.2958 190.467 94.4549 189.695 107.074C188.729 122.847 177.399 142.403 176.175 145.381C175.453 147.137 174.215 150.62 174.243 152.785V201.714C174.243 203.646 171.346 207.831 168.127 207.831C165.552 207.831 163.62 203.753 162.976 201.714L159.114 165.339C158.792 163.837 157.568 160.832 155.251 160.832C152.933 160.832 151.71 163.837 151.388 165.339L143.34 213.303C142.589 215.878 139.992 220.965 135.614 220.707C131.236 220.449 130.786 214.376 131.108 211.372L135.614 167.592C135.829 166.305 136.001 163.407 134.97 162.12C133.94 160.832 132.61 162.442 132.073 163.407L105.355 211.372C103.96 213.41 100.14 216.844 96.0197 214.269C91.8993 211.694 93.0152 206.972 94.0882 204.934L115.656 157.291C116.3 155.467 117.201 151.561 115.656 150.531C114.111 149.501 112.222 150.96 111.471 151.819L76.0614 187.229C74.7737 188.838 71.2971 191.349 67.6918 188.516C64.0866 185.683 64.902 182.185 65.7604 180.79C70.8036 173.387 83.4009 155.682 93.4444 144.093C105.999 129.607 111.149 111.58 111.471 108.361C111.793 105.142 106.643 102.567 103.102 103.211C99.5606 103.855 85.3967 104.82 77.349 103.211Z" fill="#0CA7E8"/>
<path d="M5.26946 145.74C4.66812 142.778 6.47342 141.367 7.60656 140.995C11.0768 140.995 11.785 144.135 13.2722 149.159C14.7595 154.182 19.0796 159.903 21.8416 163.392C24.6036 166.88 29.1362 170.718 31.8274 171.764C33.9803 172.602 33.5743 174.858 33.1022 175.881C32.4176 176.462 30.6659 177.472 29.1362 176.858C27.224 176.09 23.1264 174.404 19.0088 170.02C14.6179 165.345 6.61505 152.368 5.26946 145.74Z" fill="#0CA7E8"/>
<path d="M214.697 132.169C213.244 134.819 210.955 134.731 209.849 134.283C207.199 132.043 208.685 129.188 210.792 124.392C212.899 119.595 213.293 112.437 213.436 107.99C213.579 103.542 212.595 97.6855 211.215 95.1489C210.111 93.1196 211.878 91.6589 212.899 91.1822C213.797 91.1801 215.786 91.5401 216.558 92.9965C217.523 94.8171 219.564 98.7502 219.878 104.756C220.214 111.161 217.948 126.238 214.697 132.169Z" fill="#0CA7E8"/>
<path d="M18.1437 138.099C17.556 135.084 19.3203 133.648 20.4277 133.27C23.819 133.27 24.5112 136.465 25.9646 141.579C27.418 146.692 31.6399 152.515 34.3392 156.066C37.0385 159.617 41.468 163.523 44.098 164.588C46.2021 165.44 45.8052 167.736 45.3438 168.778C44.6748 169.37 42.963 170.397 41.468 169.772C39.5993 168.991 35.5948 167.275 31.5708 162.813C27.2797 158.054 19.4587 144.845 18.1437 138.099Z" fill="#0CA7E8"/>
<path d="M199.932 129.693C198.434 132.375 196.16 132.333 195.07 131.907C192.48 129.718 194.014 126.83 196.205 121.987C198.396 117.144 198.931 109.971 199.162 105.516C199.393 101.062 198.532 95.2195 197.211 92.7081C196.154 90.699 197.94 89.2015 198.964 88.7039C199.857 88.6839 201.828 89.0044 202.566 90.4468C203.489 92.2497 205.439 96.1458 205.632 102.151C205.837 108.555 203.283 123.692 199.932 129.693Z" fill="#0CA7E8"/>
</svg>
