<svg width="25" height="25" viewBox="0 0 25 25" fill="none" xmlns="http://www.w3.org/2000/svg">
<path d="M4.78516 0H20.2149C22.8548 0 25 2.14518 25 4.78516V20.2149C25 22.8548 22.8548 25 20.2149 25H16.1133V24.5117V14.9154C16.1133 14.6484 16.3314 14.4271 16.6016 14.4271H19.4792L19.7331 11.9173H16.6016C16.3314 11.9173 16.1133 11.6993 16.1133 11.4291V9.10806C16.1133 8.05012 16.8489 7.67581 17.4805 7.67581H19.7624V5.25065H16.6113C13.3399 5.25065 12.9883 7.80925 12.9883 8.9095V11.4486C12.9883 11.7187 12.7702 11.9369 12.5 11.9369H10.1074V14.4271H12.5C12.7702 14.4271 12.9883 14.6484 12.9883 14.9154V16.7969V20.7292V24.5117V25H4.78516C2.14518 25 0 22.8548 0 20.2149V4.78516C0 2.14518 2.14518 0 4.78516 0Z" fill="white"/>
</svg>
