<svg width="50" height="40" viewBox="0 0 50 40" fill="none" xmlns="http://www.w3.org/2000/svg">
<path d="M49.22 4.73539C47.4096 5.53817 45.4621 6.08114 43.4198 6.32364C45.505 5.07427 47.1053 3.09743 47.8607 0.738021C45.9094 1.89551 43.7473 2.7352 41.4482 3.1878C39.6061 1.22602 36.9816 0 34.0755 0C28.4997 0 23.9774 4.52226 23.9774 10.0981C23.9774 10.8896 24.067 11.66 24.2402 12.3995C15.8479 11.9785 8.40666 7.95858 3.42577 1.84731C2.55672 3.33842 2.05818 5.07427 2.05818 6.9246C2.05818 10.4272 3.84223 13.5193 6.55031 15.3298C4.89579 15.2778 3.33766 14.8237 1.97684 14.0653C1.97609 14.1083 1.97609 14.1512 1.97609 14.1934C1.97609 19.0861 5.45835 23.1671 10.077 24.0941C9.23054 24.3261 8.33663 24.4488 7.41711 24.4488C6.76494 24.4488 6.13311 24.3863 5.51709 24.2689C6.80185 28.2798 10.5304 31.1995 14.9502 31.2816C11.4936 33.9904 7.13998 35.6043 2.40761 35.6043C1.59428 35.6043 0.788478 35.5568 0 35.4627C4.46654 38.3289 9.77577 40 15.4781 40C34.0521 40 44.2097 24.613 44.2097 11.2676C44.2097 10.8301 44.1999 10.3941 44.1804 9.96178C46.1549 8.53846 47.8667 6.76043 49.22 4.73539Z" fill="white"/>
</svg>
