<svg width="203" height="58" viewBox="0 0 203 58" fill="none" xmlns="http://www.w3.org/2000/svg">
<path d="M16.4956 43.2208C17.6652 39.5931 20.4916 38.6862 21.7587 38.6862C22.1241 41.3923 25.9252 47.3166 30.7497 49.8033C34.5508 51.5586 36.9143 51.1686 37.6209 50.7541C37.7184 51.1198 37.8987 52.2462 37.8402 53.826C37.7671 55.8007 35.5011 58.068 31.6269 57.6292C28.5275 57.2781 23.9029 54.0698 21.9779 52.5095C20.2967 50.9735 17.1535 47.8286 16.4956 43.2208Z" fill="white"/>
<path fill-rule="evenodd" clip-rule="evenodd" d="M19.6823 14.732C20.9737 19.608 22.3699 31.1057 22.0775 37.1909C26.8418 48.8194 37.808 50.3604 38.7847 50.4976L38.8169 50.5021C41.3754 50.8678 52.1208 51.7455 59.6499 41.2135C64.7667 31.1935 55.9219 31.486 55.0447 31.5592C54.3868 31.7786 52.881 32.627 52.1208 34.2653C51.5239 35.1253 51.1219 35.7356 50.8156 36.2007L50.8156 36.2008L50.8156 36.2008C50.1841 37.1597 49.959 37.5014 49.2699 38.1417C48.2466 39.0925 45.4688 41.2135 41.3023 38.1417C38.0129 34.9967 38.6707 31.2666 38.89 30.3889C39.4017 28.7067 41.3754 25.2985 45.1765 25.1229C48.9775 24.9474 51.5847 28.2191 52.4132 29.877C53.0954 30.7059 55.264 31.9687 58.4803 30.3889C61.6966 28.8091 60.1128 23.6845 58.9189 21.3197C58.2673 20.1732 56.5302 17.7706 54.4754 16.6692L54.3512 16.9338C51.9714 15.8166 47.6105 14.9556 43.2656 15.5064C38.9317 16.0558 34.7053 17.994 32.434 22.376L31.5462 21.9158C34.02 17.1431 38.609 15.0887 43.1399 14.5143C47.2633 13.9916 51.4145 14.6815 54.057 15.7201C54.115 14.5493 53.7212 12.4628 51.3555 10.8279L51.338 10.8871C42.4868 8.26459 36.2176 11.0412 33.0642 13.4779C31.4917 14.693 30.2732 16.233 29.4443 17.4803C29.0311 18.102 28.7178 18.6463 28.5085 19.0339C28.4039 19.2276 28.3254 19.3818 28.2735 19.4866C28.2476 19.539 28.2283 19.579 28.2158 19.6053L28.202 19.6345L28.1989 19.6412L28.1984 19.6424L28.1983 19.6425C28.1984 19.6424 28.1984 19.6423 27.7437 19.4343C27.2891 19.2263 27.2891 19.2262 27.2892 19.2261L27.2893 19.2257L27.2897 19.2248L27.2911 19.2219L27.2957 19.212L27.3126 19.176C27.3274 19.145 27.3489 19.1002 27.3773 19.0429C27.434 18.9284 27.518 18.7636 27.6286 18.5587C27.8499 18.1491 28.1786 17.578 28.6114 16.9268C29.4744 15.6282 30.7631 13.9922 32.4527 12.6867C35.4191 10.3945 40.8845 7.88878 48.425 9.17919C42.3499 5.99302 33.3252 7.67849 28.7641 12.0632L28.9221 12.2069C28.2249 12.9739 27.5361 14.0913 26.9775 15.2373C26.4187 16.3837 26.0114 17.5151 25.8555 18.2943L24.8749 18.0982C25.0534 17.2058 25.4982 15.9899 26.0786 14.7991C26.2437 14.4603 26.4216 14.12 26.6096 13.7866V7.31839C26.2063 3.46314 25.9351 2.18792 24.2704 0.79422C22.4995 -0.688507 19.2374 0.0461836 18.5689 1.83212C18.0782 3.14342 18.1102 3.76269 18.161 4.7451C18.1791 5.09574 18.1996 5.49265 18.1996 5.98379C18.1996 7.22716 19.0975 12.5241 19.6823 14.732Z" fill="white"/>
<path d="M11.5571 8.92671C8.14326 16.7815 3.36388 35.6196 11.5571 48.1339" stroke="white" stroke-opacity="0.5"/>
<path d="M61.3196 8.92671C64.3541 16.6808 68.6024 35.2773 61.3196 47.6313" stroke="white" stroke-opacity="0.5"/>
<path d="M69.3607 15.9636C71.2573 20.6966 73.9125 32.0478 69.3607 39.5885" stroke="white" stroke-opacity="0.5"/>
<path d="M3.51328 16.4663C1.6167 21.3 -1.03852 32.8926 3.51328 40.5938" stroke="white" stroke-opacity="0.5"/>
<path d="M82.608 20.3362H78V16.7842H90.864V20.3362H86.128V39.1842H82.608V20.3362ZM103.713 33.2962C103.713 35.0882 103.223 36.5709 102.241 37.7442C101.26 38.9176 99.7773 39.5042 97.7933 39.5042C95.8093 39.5042 94.3053 38.9176 93.2812 37.7442C92.2786 36.5496 91.7773 35.0669 91.7773 33.2962V29.0722C91.7773 27.0456 92.2893 25.4989 93.3133 24.4322C94.3586 23.3442 95.8519 22.8002 97.7933 22.8002C99.6493 22.8002 101.1 23.3656 102.145 24.4962C103.191 25.6056 103.713 27.1309 103.713 29.0722V33.2962ZM100.225 29.0722C100.225 27.9416 99.9906 27.2056 99.5213 26.8642C99.0519 26.5229 98.4759 26.3522 97.7933 26.3522C96.1293 26.3522 95.2973 27.2589 95.2973 29.0722V33.6162C95.2973 34.4696 95.5319 35.0882 96.0013 35.4722C96.4706 35.8562 97.0679 36.0482 97.7933 36.0482C98.4973 36.0482 99.0733 35.8456 99.5213 35.4402C99.9906 35.0349 100.225 34.4269 100.225 33.6162V29.0722ZM107.465 16.7842H110.985V35.9522H119.017V39.1842H107.465V16.7842ZM122.999 20.2402L121.015 20.1762V16.7842H126.519V39.1842H122.999V20.2402ZM131.59 16.7842H138.118C139.888 16.7842 141.36 17.2749 142.534 18.2562C143.707 19.2376 144.294 20.6349 144.294 22.4482C144.294 23.3016 144.155 24.1122 143.878 24.8802C143.6 25.6482 143.035 26.3202 142.182 26.8962L142.15 26.9602V26.9922C143.088 27.4189 143.867 28.1016 144.486 29.0402C145.126 29.9789 145.446 31.1736 145.446 32.6242C145.446 33.7336 145.222 34.7896 144.774 35.7922C144.326 36.7736 143.59 37.5842 142.566 38.2242C141.542 38.8642 140.219 39.1842 138.598 39.1842H131.59V16.7842ZM136.646 25.9682C137.862 25.9682 138.758 25.7442 139.334 25.2962C139.91 24.8482 140.198 24.0802 140.198 22.9922C140.198 21.9896 139.931 21.2962 139.398 20.9122C138.864 20.5069 138.054 20.3042 136.966 20.3042H135.11V25.9682H136.646ZM137.062 35.9522C138.043 35.9522 138.832 35.8776 139.43 35.7282C140.048 35.5576 140.528 35.2269 140.87 34.7362C141.232 34.2456 141.414 33.5202 141.414 32.5602C141.414 31.3442 141.04 30.5122 140.294 30.0642C139.547 29.5949 138.566 29.3602 137.35 29.3602H135.11V35.9522H137.062ZM157.376 32.9442H152.704V39.1842H149.184V16.7842H156.768C158.176 16.7842 159.349 17.1362 160.288 17.8402C161.226 18.5229 161.92 19.4402 162.368 20.5922C162.837 21.7442 163.072 23.0136 163.072 24.4002C163.072 25.4456 163.029 26.3522 162.944 27.1202C162.858 27.8882 162.634 28.6882 162.272 29.5202C161.93 30.3522 161.376 31.0989 160.608 31.7602L163.104 39.1842H159.52L157.376 32.9442ZM155.936 29.5842C156.981 29.5842 157.749 29.3176 158.24 28.7842C158.752 28.2296 159.061 27.6002 159.168 26.8962C159.296 26.1922 159.36 25.3602 159.36 24.4002C159.36 23.2696 159.2 22.4162 158.88 21.8402C158.56 21.2429 158.112 20.8482 157.536 20.6562C156.96 20.4429 156.213 20.3362 155.296 20.3362H152.704V29.5842H155.936ZM175.79 33.3282H170.638L169.39 39.1842H165.422L170.67 16.7842H175.63L181.294 39.1842H177.102L175.79 33.3282ZM171.47 29.5842H174.958L173.134 22.6722L171.47 29.5842ZM186.585 32.9442C186.692 33.8829 187.076 34.6402 187.737 35.2162C188.398 35.7922 189.262 36.0802 190.329 36.0802C191.225 36.0802 191.95 35.9309 192.505 35.6322C193.081 35.3336 193.497 34.9709 193.753 34.5442C194.009 34.1176 194.137 33.7016 194.137 33.2962C194.137 32.3576 193.902 31.5789 193.433 30.9602C192.985 30.3202 192.42 29.8189 191.737 29.4562C191.076 29.0722 190.169 28.6349 189.017 28.1442C187.758 27.6109 186.756 27.1309 186.009 26.7042C185.284 26.2562 184.654 25.6589 184.121 24.9122C183.609 24.1442 183.353 23.1736 183.353 22.0002C183.353 21.0616 183.62 20.1762 184.153 19.3442C184.686 18.4909 185.497 17.7976 186.585 17.2642C187.673 16.7309 189.006 16.4642 190.585 16.4642C191.63 16.4642 192.494 16.5389 193.177 16.6882C193.86 16.8376 194.553 17.0829 195.257 17.4242L194.137 20.7522C193.369 20.4962 192.74 20.3149 192.249 20.2082C191.78 20.1016 191.236 20.0482 190.617 20.0482C189.401 20.0482 188.505 20.2616 187.929 20.6882C187.353 21.1149 187.097 21.6589 187.161 22.3202C187.225 22.8536 187.545 23.3122 188.121 23.6962C188.718 24.0802 189.636 24.5496 190.873 25.1042C192.324 25.7442 193.529 26.3522 194.489 26.9282C195.449 27.5042 196.27 28.2936 196.953 29.2962C197.657 30.2989 198.009 31.5256 198.009 32.9762C198.009 34.8749 197.38 36.4429 196.121 37.6802C194.862 38.9176 192.942 39.5362 190.361 39.5362C188.782 39.5362 187.428 39.2482 186.297 38.6722C185.188 38.0749 184.334 37.3176 183.737 36.4002C183.161 35.4616 182.852 34.4909 182.809 33.4882L186.585 32.9442Z" fill="white"/>
</svg>
